<?xml version="1.0" standalone="no"?>
<!DOCTYPE svg PUBLIC "-//W3C//DTD SVG 20010904//EN"
 "http://www.w3.org/TR/2001/REC-SVG-20010904/DTD/svg10.dtd">
<svg version="1.0" xmlns="http://www.w3.org/2000/svg"
 width="728.000000pt" height="667.000000pt" viewBox="0 0 728.000000 667.000000"
 preserveAspectRatio="xMidYMid meet">
<metadata>
Created by potrace 1.16, written by Peter Selinger 2001-2019
</metadata>
<g transform="translate(0.000000,667.000000) scale(0.100000,-0.100000)"
fill="#000000" stroke="none">
<path d="M3850 5369 c-69 -46 -222 -146 -340 -224 -118 -78 -220 -144 -226
-148 -7 -4 -54 8 -106 26 l-95 32 -264 -16 c-547 -35 -896 -59 -945 -64 l-52
-6 -203 -225 c-112 -124 -213 -227 -224 -229 -11 -3 -144 -28 -295 -55 -151
-28 -282 -53 -290 -55 -8 -3 -37 -40 -63 -82 -26 -43 -102 -162 -167 -265 -66
-103 -120 -192 -120 -197 0 -6 11 -16 24 -23 14 -7 50 -31 82 -52 48 -33 58
-37 65 -23 5 9 79 99 164 201 129 154 160 186 182 186 14 0 118 -12 230 -26
l205 -26 27 24 c31 29 116 103 377 331 l191 166 213 -39 c117 -21 214 -41 216
-43 2 -2 -43 -36 -101 -76 -58 -39 -105 -76 -105 -82 0 -6 15 1 33 15 19 15
36 26 38 26 2 0 2 -22 1 -50 -2 -27 -8 -50 -13 -50 -5 0 -9 -6 -9 -13 0 -9 33
-18 103 -29 56 -9 256 -40 444 -70 333 -51 343 -54 343 -75 0 -13 -1 -23 -3
-23 -3 0 -845 128 -894 136 l-43 7 0 44 c0 43 1 45 25 39 27 -7 35 8 9 18 -28
11 -52 6 -58 -10 -11 -28 -6 -101 7 -112 6 -5 95 -22 197 -36 102 -15 312 -46
466 -69 155 -24 287 -41 293 -39 6 2 11 17 11 33 l0 29 61 -3 c58 -2 62 -1 64
21 1 13 -2 25 -7 28 -4 3 -8 -3 -8 -14 0 -18 -3 -18 -77 -6 -43 7 -184 29
-313 49 -129 21 -309 49 -400 64 l-165 26 -3 48 -3 47 32 -7 c42 -8 31 13 -11
22 l-31 7 41 29 c22 16 42 29 45 29 3 0 5 -20 5 -45 0 -31 -5 -47 -15 -51 -8
-4 -15 -12 -15 -18 0 -12 28 -18 235 -51 222 -36 287 -46 365 -60 184 -33 397
-65 428 -65 l33 0 -3 63 c-3 60 -4 62 -31 65 -24 3 -28 7 -23 25 30 101 14
115 -80 69 l-64 -32 0 45 c0 55 -8 56 -91 14 -34 -17 -62 -29 -64 -27 -2 2 -1
15 2 29 4 22 29 40 146 105 78 43 192 106 252 139 61 34 211 117 334 185 l224
124 101 -26 c92 -23 1023 -268 1476 -389 102 -27 215 -57 253 -66 37 -9 67
-20 67 -23 0 -4 -52 -22 -115 -41 -63 -19 -111 -37 -107 -40 6 -5 314 -82 730
-181 23 -6 41 -12 39 -14 -2 -2 -74 -21 -160 -43 l-157 -38 0 28 c0 15 -4 30
-8 33 -7 4 -420 100 -519 121 l-33 7 0 76 c0 46 -4 72 -9 67 -5 -6 -11 -332
-13 -762 -2 -413 -6 -755 -10 -758 -3 -4 -72 -4 -152 0 l-146 8 -2 236 -3 236
-47 3 -48 3 0 343 0 344 36 -8 c20 -5 42 -6 49 -4 15 6 25 135 25 320 l0 133
-37 10 c-200 53 -687 171 -690 167 -2 -2 -5 -111 -6 -243 -1 -223 -1 -229 -7
-88 l-6 150 -2 -157 -2 -156 33 -7 c75 -15 68 24 65 -378 l-3 -361 -48 3 -49
3 4 -244 c2 -134 8 -249 12 -257 7 -11 -18 -12 -145 -7 -85 4 -187 9 -226 12
l-73 6 0 914 c0 603 -3 914 -10 914 -7 0 -10 -312 -10 -915 l0 -914 -32 -5
c-39 -6 -567 -56 -620 -59 -21 -1 -38 -7 -38 -13 0 -7 57 -13 173 -18 94 -3
236 -9 315 -13 l142 -6 0 -537 0 -536 -285 -24 -285 -24 0 -27 c0 -24 -4 -27
-49 -33 -45 -6 -50 -9 -53 -34 -3 -24 -8 -27 -45 -30 -40 -3 -43 -5 -43 -33 0
-16 -4 -29 -10 -29 -5 0 -165 -16 -354 -35 l-345 -35 -67 25 c-37 14 -69 23
-72 20 -6 -6 -14 -3 353 -135 661 -237 636 -229 742 -236 109 -7 149 -2 1543
198 388 56 725 101 750 100 24 0 47 3 50 7 3 4 311 51 685 105 714 101 739
105 732 112 -4 4 -1161 -159 -1397 -196 -47 -8 -105 -1 -388 48 -183 31 -329
58 -325 59 5 2 35 7 68 12 57 9 55 10 -22 4 -44 -3 -87 -5 -95 -6 -7 -1 -42 2
-78 7 l-65 8 3 631 c2 348 7 636 11 640 4 4 16 4 26 1 17 -7 18 -30 12 -537
l-7 -529 58 6 c31 3 246 22 477 41 231 19 467 40 524 45 58 6 117 10 133 10
l28 0 1 -102 c0 -79 3 -97 10 -78 6 14 9 68 7 120 l-3 95 -34 3 -34 4 6 975
c4 537 9 978 11 981 3 2 36 11 73 18 137 29 143 32 143 64 0 32 1 32 -153 65
-43 10 -76 19 -74 21 2 2 77 21 167 43 91 22 166 45 168 50 2 6 9 11 16 11 7
0 55 29 106 65 65 45 111 68 147 76 30 7 52 17 50 23 -2 6 -153 58 -335 116
-182 58 -334 108 -337 112 -9 9 36 31 108 54 31 10 57 23 57 29 0 6 -30 21
-67 32 -38 12 -140 44 -228 72 -88 27 -290 90 -450 140 -159 49 -492 153 -740
230 -551 171 -810 249 -850 256 -25 5 -49 -7 -155 -76z m140 38 c0 -2 9 -77
20 -167 11 -90 17 -167 13 -171 -4 -4 -89 -53 -188 -109 -99 -56 -308 -174
-465 -263 -266 -150 -335 -192 -285 -172 11 4 28 7 37 7 10 0 17 4 15 10 -1 6
5 13 13 15 13 4 13 3 0 -6 -58 -41 57 20 441 235 243 135 443 243 447 240 7
-8 36 9 -318 -186 -173 -96 -385 -213 -470 -260 -130 -73 -157 -85 -168 -74
-17 18 -23 17 -50 -2 -13 -9 -25 -14 -27 -13 -2 2 -18 55 -36 118 -33 112 -34
114 -14 128 24 18 322 214 583 383 106 69 247 162 315 206 111 75 137 90 137
81z m144 -31 c237 -74 903 -279 946 -291 52 -15 169 -51 575 -176 160 -49 335
-103 390 -120 55 -17 119 -37 143 -45 23 -8 49 -14 57 -14 8 0 15 -5 15 -11 0
-6 9 -8 20 -4 11 4 20 2 20 -4 0 -6 -4 -11 -9 -11 -5 0 -17 -3 -27 -7 -12 -4
-15 -3 -10 5 10 16 0 15 -21 -2 -24 -20 -96 -72 -162 -120 l-54 -38 -116 32
c-64 17 -258 70 -431 116 -458 123 -1027 277 -1241 336 l-185 50 -18 147 c-10
80 -20 156 -23 169 -7 29 -1 29 131 -12z m12 -342 c36 -9 63 -19 60 -21 -2 -2
-23 1 -46 7 -23 6 -44 10 -46 7 -2 -2 41 -16 97 -31 56 -15 103 -25 106 -23 2
3 -19 10 -47 17 -28 7 -49 14 -47 16 2 3 59 -10 126 -27 66 -18 119 -34 117
-36 -2 -3 -23 1 -46 7 -23 6 -44 9 -46 7 -2 -2 59 -21 137 -41 77 -21 144 -35
147 -32 3 3 -3 6 -13 6 -10 0 -16 2 -13 5 3 4 18 3 33 -1 17 -4 23 -9 15 -14
-7 -4 8 -12 35 -19 26 -7 50 -9 53 -6 3 3 -3 5 -13 5 -10 0 -16 2 -13 5 3 4
18 3 33 -1 20 -5 24 -9 13 -16 -8 -6 -1 -7 22 -3 22 4 30 3 22 -3 -17 -12 181
-65 211 -57 15 4 18 3 9 -3 -17 -12 144 -54 178 -46 17 4 21 3 12 -4 -18 -12
63 -34 98 -26 18 4 21 3 12 -4 -18 -12 63 -34 98 -26 21 5 22 4 10 -6 -12 -9
-10 -10 13 -5 21 4 27 3 21 -6 -5 -9 1 -10 22 -5 23 5 26 4 14 -5 -12 -8 -7
-9 20 -5 27 5 31 3 20 -5 -12 -8 -9 -10 12 -6 17 2 25 0 21 -6 -4 -6 5 -7 23
-3 23 5 26 4 14 -5 -12 -8 -7 -9 20 -5 27 5 31 3 20 -5 -11 -8 -7 -9 20 -5 27
5 31 3 20 -5 -12 -8 -9 -10 12 -6 17 2 25 0 21 -6 -4 -6 5 -7 23 -3 23 5 26 4
14 -4 -12 -9 -10 -11 12 -7 15 2 25 1 23 -3 -7 -11 131 -41 152 -33 17 6 17 6
2 -10 -15 -15 -33 -12 -235 42 -121 32 -401 107 -624 165 -223 59 -461 123
-530 141 -69 18 -215 57 -325 86 -110 28 -204 56 -210 61 -6 6 -5 12 5 18 19
12 10 13 86 -6z m-979 -21 c46 -15 83 -30 83 -34 0 -3 -77 -57 -170 -118
l-170 -113 -343 72 c-188 39 -412 85 -497 102 -85 17 -158 34 -162 37 -4 4
156 17 355 30 199 14 439 30 532 36 264 19 279 18 372 -12z m-602 -218 c121
-25 251 -52 288 -60 38 -7 69 -15 71 -16 8 -12 66 -222 63 -226 -11 -10 -60
11 -64 28 -6 22 -15 23 -58 8 -45 -17 -105 -4 -105 21 0 15 -7 20 -28 20 -15
0 -33 -5 -39 -11 -15 -15 -103 -1 -103 17 0 24 -32 33 -62 18 -26 -13 -50 -11
-273 31 -135 25 -249 45 -253 45 -5 0 -20 26 -35 58 -63 140 -87 195 -87 202
0 7 133 -19 685 -135z m-692 118 c2 -10 27 -68 55 -130 l50 -112 -289 -258
c-159 -142 -292 -259 -297 -261 -8 -2 -102 150 -102 166 0 5 37 49 83 97 88
94 114 132 51 75 l-39 -35 34 37 c19 21 37 35 41 33 7 -5 55 44 269 273 68 72
127 132 131 132 4 0 10 -8 13 -17z m3014 -257 c164 -40 317 -79 341 -85 l42
-12 0 -211 c0 -195 -1 -210 -17 -206 -10 3 -165 33 -345 68 l-328 64 0 228 c0
125 2 228 5 228 2 0 138 -33 302 -74z m-2890 -13 c0 -11 -48 -60 -120 -123
-121 -105 -159 -134 -122 -89 l20 24 -22 -19 c-12 -10 -21 -23 -20 -30 1 -6
-4 -10 -11 -8 -8 1 -11 -1 -8 -6 3 -5 -54 -60 -127 -123 -170 -147 -175 -151
-181 -140 -4 5 71 78 166 163 95 84 226 201 292 261 66 59 122 107 126 107 3
0 6 -8 7 -17z m4227 -77 c44 -13 180 -52 301 -86 121 -34 226 -66 234 -70 9
-5 -18 -28 -85 -75 -54 -37 -105 -70 -114 -72 -14 -4 -728 171 -737 181 -2 2
30 14 72 27 42 12 79 28 82 36 3 7 11 13 18 13 7 0 35 15 61 34 27 19 57 35
68 35 10 1 55 -10 100 -23z m-3684 1 c0 -24 -32 -107 -41 -107 -5 0 -9 -5 -9
-11 0 -6 6 -9 14 -6 8 3 17 1 19 -6 3 -8 10 -7 24 6 17 15 27 16 64 8 26 -6
48 -6 53 -1 5 5 -3 12 -20 15 -16 4 -33 8 -39 9 -5 2 15 19 45 38 40 26 56 32
58 22 5 -20 -18 -85 -37 -108 -15 -18 -15 -19 1 -13 9 3 19 1 21 -6 3 -8 10
-7 24 6 16 14 28 16 67 8 34 -6 46 -5 43 3 -2 6 -19 13 -37 16 l-33 5 59 37
c32 20 60 32 62 27 5 -14 -28 -109 -39 -109 -5 0 -9 -4 -9 -9 0 -15 38 -19 57
-6 12 9 33 12 61 8 28 -4 42 -2 42 6 0 6 -13 11 -30 11 -16 0 -30 4 -30 8 0 4
25 22 55 39 44 25 55 29 55 16 0 -30 -24 -95 -37 -100 -19 -7 -16 -20 5 -25
10 -3 27 1 38 9 13 9 32 12 63 7 31 -5 42 -4 37 5 -4 6 -18 11 -31 11 -42 0
-35 15 26 48 51 28 59 30 59 15 -1 -26 -37 -103 -50 -103 -5 0 -10 -4 -10 -9
0 -12 52 -11 68 1 7 6 30 8 52 4 51 -8 53 9 3 21 l-38 9 63 32 c56 29 62 30
62 14 0 -35 -22 -82 -43 -94 l-21 -11 23 -8 c13 -5 30 -5 41 1 10 6 32 10 49
10 30 0 31 -1 31 -46 0 -43 -2 -46 -22 -41 -13 3 -236 40 -495 83 l-473 79 0
48 c0 47 1 49 25 44 16 -3 24 0 22 7 -2 6 -17 13 -32 16 l-29 5 49 37 c55 41
65 45 65 25z m-1175 -99 c-15 -18 -48 -55 -73 -82 l-45 -48 -136 21 c-75 11
-162 24 -194 27 -32 4 -55 9 -53 11 5 5 485 100 514 102 8 1 3 -12 -13 -31z
m-321 -123 c93 -14 183 -25 200 -25 28 0 35 -7 80 -86 26 -47 46 -87 45 -89
-2 -2 -98 10 -214 26 -115 16 -213 29 -216 29 -4 0 -70 98 -112 167 -6 9 -1
11 20 8 15 -3 104 -17 197 -30z m-175 -68 c30 -45 49 -83 45 -90 -4 -6 -77
-100 -163 -207 -85 -107 -156 -197 -158 -199 -3 -5 -40 20 -81 56 l-32 28 90
140 c212 330 235 364 241 357 3 -4 30 -42 58 -85z m4906 4 c72 -16 185 -42
253 -58 120 -27 122 -28 122 -55 0 -31 4 -30 -90 -7 -19 4 -120 26 -225 49
-241 51 -225 45 -225 81 0 24 4 29 18 25 9 -3 76 -18 147 -35z m247 -132 c259
-56 388 -88 388 -96 0 -7 -3 -13 -7 -13 -5 -1 -185 36 -400 82 -349 73 -393
85 -393 101 0 11 5 17 13 14 6 -2 186 -42 399 -88z m-1294 26 l42 -7 0 -65 0
-66 -37 7 c-21 3 -48 6 -60 6 -22 0 -23 4 -23 71 0 62 2 70 18 65 9 -2 36 -8
60 -11z m1277 -74 c243 -52 361 -81 345 -85 -120 -29 -150 -32 -150 -13 0 10
-81 30 -282 71 -156 31 -289 56 -295 56 -7 0 -13 11 -13 25 0 14 6 25 13 25 6
0 179 -36 382 -79z m-1065 -29 l0 -64 -31 6 c-17 3 -44 6 -60 6 l-29 0 0 68 0
68 60 -10 60 -10 0 -64z m925 -1 c132 -28 257 -53 278 -57 20 -3 39 -10 42
-14 5 -7 -12 -2001 -17 -2005 -2 -1 -45 -5 -95 -9 l-93 -7 0 46 c0 43 -1 45
-30 45 l-30 0 0 285 0 285 29 0 c24 0 29 5 33 30 3 17 2 33 -2 35 -4 2 -86 7
-183 11 -163 7 -177 6 -177 -10 0 -9 5 -14 10 -11 6 3 10 -1 10 -9 0 -9 -4
-16 -10 -16 -5 0 -10 -4 -10 -10 0 -5 7 -10 15 -10 13 0 15 -40 15 -300 0
-293 0 -300 -20 -300 -17 0 -20 -7 -20 -49 0 -49 0 -49 -37 -55 -21 -3 -74 -8
-118 -11 -44 -3 -97 -8 -117 -11 l-38 -6 0 500 0 499 146 6 c80 3 148 7 150
10 2 2 4 270 4 595 1 448 3 592 12 592 7 0 120 -22 253 -49z m-772 -448 c-3
-87 -7 -160 -9 -162 -2 -2 -19 0 -39 3 l-35 7 -2 127 -2 127 -6 -130 -6 -130
-2 147 -2 146 38 10 c75 20 71 30 65 -145z m-163 2 l0 -145 -29 0 c-16 0 -43
3 -60 6 l-32 7 3 125 3 126 45 12 c25 7 51 12 58 13 9 1 12 -34 12 -144z
m-187 -28 l2 -97 -47 0 -48 0 0 94 0 95 28 4 c64 10 64 11 65 -96z m119 -136
c150 -17 303 -33 341 -37 l67 -6 0 -224 0 -224 -46 0 c-68 0 -648 30 -652 34
-3 4 10 486 14 486 1 0 125 -13 276 -29z m-412 -486 c162 -8 337 -15 388 -17
97 -3 130 -18 40 -18 -29 0 -138 -7 -243 -15 -160 -13 -253 -13 -590 -4 -220
7 -407 15 -415 20 -10 5 5 9 40 9 30 1 132 10 225 19 219 24 209 23 555 6z
m510 -700 c0 -584 -2 -665 -15 -665 -10 0 -15 10 -15 29 0 25 -4 29 -40 35
-34 5 -40 10 -40 31 0 26 -4 29 -52 39 -21 5 -28 12 -28 30 0 13 -6 26 -12 29
-7 2 -97 17 -200 33 l-188 28 0 393 c0 386 0 393 20 393 19 0 20 7 20 125 l0
125 43 1 c40 0 499 35 505 38 1 0 2 -298 2 -664z m-642 625 l82 0 0 -118 0
-119 -135 5 -135 5 0 -422 0 -421 -30 0 -30 0 0 541 0 542 83 -6 c45 -4 119
-7 165 -7z m-20 -266 l52 -7 0 -378 0 -378 -32 -5 c-18 -3 -63 -8 -100 -11
l-68 -6 0 161 c0 136 2 160 15 160 8 0 15 5 15 10 0 6 -7 10 -15 10 -13 0 -15
31 -15 219 0 201 2 220 18 224 27 7 72 7 130 1z m1432 -349 c0 -157 -3 -205
-12 -205 -7 0 -23 -3 -35 -6 l-23 -6 0 211 0 211 35 0 35 0 0 -205z m108 3
l-3 -203 -32 -3 -33 -3 0 205 0 206 35 0 35 0 -2 -202z m132 -276 l0 -39 -127
-12 c-71 -6 -143 -11 -160 -11 -32 0 -33 2 -33 39 l0 39 98 7 c53 3 104 8 112
9 8 2 36 4 63 5 l47 1 0 -38z m-1445 -184 c83 -12 153 -24 158 -28 4 -3 -133
-19 -305 -34 -294 -25 -328 -26 -558 -17 -135 5 -258 14 -275 20 -16 5 -23 10
-14 10 9 1 121 10 250 21 129 10 263 21 299 24 36 3 94 9 130 14 107 15 158
13 315 -10z m235 -63 c0 -8 -1 -15 -2 -15 -2 -1 -147 -16 -323 -33 -264 -27
-321 -30 -323 -19 -2 7 -2 16 1 19 3 2 115 15 249 28 401 40 398 39 398 20z
m-717 -44 c40 -1 47 -4 47 -21 0 -18 -6 -19 -132 -14 -273 10 -338 15 -338 28
0 7 2 15 4 17 2 2 87 1 188 -2 100 -4 204 -7 231 -8z m797 -25 c0 -16 -18 -19
-240 -41 -85 -9 -209 -23 -275 -30 -167 -20 -185 -20 -185 5 0 17 7 20 43 21
23 0 157 13 297 28 304 34 360 36 360 17z m-732 -51 c6 -3 12 -14 12 -26 0
-18 -4 -21 -32 -16 -18 3 -147 9 -285 13 -241 6 -253 8 -253 26 0 19 8 19 273
13 149 -4 278 -8 285 -10z m812 -14 c0 -23 0 -22 -255 -51 -99 -11 -249 -29
-332 -38 l-153 -18 0 20 c0 20 15 23 363 62 199 23 365 42 370 43 4 0 7 -8 7
-18z m229 -6 c75 -13 242 -43 371 -65 129 -23 236 -43 238 -44 1 -2 -88 -16
-198 -31 -223 -31 -201 -32 -462 22 l-128 26 0 59 c0 70 -11 68 179 33z
m-1289 -50 c270 -8 300 -11 300 -37 0 -18 -5 -19 -72 -14 -40 3 -163 8 -273
11 -110 3 -233 8 -272 11 -64 6 -73 9 -73 26 0 19 5 20 93 14 50 -3 184 -8
297 -11z m1098 -22 c4 -36 -11 -31 215 -74 64 -13 117 -26 117 -29 0 -3 -152
-26 -338 -53 -185 -26 -544 -77 -797 -113 -253 -36 -493 -67 -535 -71 -137
-10 -200 6 -622 159 l-393 143 65 7 c36 4 185 19 333 34 l267 26 98 -26 c89
-24 126 -27 452 -40 l355 -14 350 43 c193 24 368 42 390 42 37 -2 40 -4 43
-34z"/>
<path d="M5634 4005 c-18 -13 -18 -14 -1 -15 21 0 23 -30 2 -30 -22 0 -18 -17
5 -23 19 -5 20 -14 20 -204 0 -263 -9 -393 -27 -393 -9 0 -13 -17 -13 -63 l0
-63 128 -12 c70 -7 153 -12 185 -12 l57 0 0 60 0 60 -30 0 -30 0 0 284 0 285
28 3 c24 3 27 7 27 38 l0 35 -140 27 c-77 15 -152 29 -166 32 -15 3 -35 -1
-45 -9z m106 -467 l0 -210 -22 6 c-13 3 -29 6 -35 6 -10 0 -13 48 -13 208 l0
208 35 -4 35 -4 0 -210z m98 192 c9 0 12 -48 12 -205 0 -217 1 -212 -47 -199
-23 6 -23 7 -23 211 l0 205 23 -6 c12 -3 28 -6 35 -6z m16 -430 c61 -6 114
-14 118 -16 10 -7 10 -45 -1 -62 -6 -11 -35 -11 -159 0 l-152 12 0 44 0 43 43
-5 c23 -3 91 -10 151 -16z"/>
<path d="M2166 3972 l7 -537 -74 -24 c-41 -13 -80 -26 -86 -28 -10 -4 -13 59
-13 296 0 194 4 301 10 301 6 0 10 75 10 205 0 243 5 238 -119 144 l-81 -61 0
-188 c0 -180 1 -189 20 -195 20 -6 20 -13 18 -282 l-3 -276 -50 -18 c-27 -10
-56 -18 -62 -18 -17 -1 -19 500 -3 530 7 12 7 19 1 19 -6 0 -11 60 -13 149 -2
82 0 147 5 144 4 -2 7 7 7 21 0 18 -5 26 -17 26 -17 0 -18 -14 -15 -174 l3
-174 -54 -31 c-30 -17 -57 -31 -61 -31 -3 0 -6 69 -6 154 l0 154 50 37 c28 20
50 39 50 42 0 6 -2 5 -67 -46 l-43 -33 0 -165 c0 -156 1 -165 20 -170 19 -5
20 -14 20 -249 0 -244 0 -245 -22 -253 -13 -5 -24 -8 -25 -7 -1 1 -3 56 -4
124 -1 67 -5 122 -9 122 -3 0 -4 -56 -2 -125 l4 -125 -26 -10 c-20 -7 -26 -16
-26 -40 0 -17 5 -30 13 -30 7 0 116 32 242 71 127 39 264 81 305 94 41 12 120
37 175 54 55 17 103 31 108 31 4 0 7 -148 7 -330 l0 -330 -59 0 c-32 0 -86 -3
-120 -6 l-61 -7 0 -406 0 -406 118 -31 117 -30 7 -139 c4 -76 6 -140 4 -142
-1 -2 -213 76 -470 173 -258 96 -470 173 -472 171 -2 -2 348 -135 779 -297
430 -161 798 -300 817 -308 l35 -16 -40 -7 c-31 -5 -26 -6 19 -3 51 3 66 0
125 -31 36 -19 92 -58 125 -85 68 -59 215 -133 301 -151 l59 -13 -324 -53
c-179 -30 -881 -146 -1560 -260 -679 -113 -1253 -206 -1275 -208 -22 -1 -58
-7 -80 -13 -37 -11 -378 -72 -399 -72 -5 0 -7 -2 -4 -5 3 -3 642 100 1419 229
1352 225 1917 318 2553 422 160 26 285 49 280 51 -6 2 -136 -17 -289 -42 -247
-40 -285 -44 -336 -35 -129 24 -215 64 -340 159 -48 36 -103 74 -121 84 -19
10 -199 80 -401 156 -202 75 -364 140 -360 144 3 4 -1 7 -10 7 -15 0 -17 16
-17 143 l0 144 276 19 276 19 -1 414 c-1 228 -4 418 -7 423 -3 4 -126 8 -275
8 l-269 0 0 333 0 332 148 -11 c81 -7 215 -17 297 -23 352 -25 551 -43 567
-51 19 -11 28 6 28 54 l0 33 -97 7 c-173 11 -847 67 -882 72 -18 3 -31 7 -29
9 4 4 212 -12 707 -55 129 -11 236 -18 238 -16 5 4 -52 12 -164 22 -40 3 -73
10 -73 16 0 6 16 7 38 4 20 -3 75 -7 122 -10 167 -10 4 13 -240 33 -481 40
-630 55 -630 64 0 4 26 5 58 2 31 -3 181 -17 332 -30 151 -14 327 -30 391 -36
64 -6 130 -9 145 -7 16 2 -14 7 -66 11 -52 5 -107 10 -122 13 l-28 6 -2 286
c-1 158 -3 263 -5 235 -4 -48 -6 -53 -28 -53 -22 0 -192 22 -267 35 l-28 5 0
-242 0 -241 -52 6 c-29 3 -114 11 -189 18 l-136 12 -94 -32 c-90 -30 -136 -51
-113 -51 5 0 47 14 92 30 85 31 107 36 98 22 -2 -4 -45 -21 -95 -37 -50 -16
-91 -32 -91 -36 0 -4 46 8 103 27 l102 35 185 -17 c102 -9 187 -18 189 -20 13
-12 -22 -12 -194 2 l-190 15 -105 -34 -105 -35 -6 152 c-4 83 -7 323 -8 534
-1 255 -4 382 -11 382 -7 0 -8 -170 -4 -538z m-186 210 l0 -188 -67 -39 c-37
-22 -70 -41 -75 -43 -4 -2 -8 77 -7 175 l0 178 67 52 c37 29 70 53 75 53 4 0
7 -85 7 -188z m1078 -237 l42 -6 0 -214 0 -215 -62 6 c-35 3 -97 9 -138 12
l-75 7 -3 221 -2 220 97 -13 c54 -7 117 -15 141 -18z m-720 -497 c-3 -20 -22
-29 -153 -69 -82 -26 -247 -77 -365 -114 -322 -101 -300 -95 -300 -81 0 8 163
68 403 149 221 74 406 136 410 136 5 1 7 -9 5 -21z m299 2 c354 -30 726 -60
751 -60 15 0 22 -6 22 -20 0 -11 -3 -20 -7 -20 -16 0 -910 70 -975 76 -57 6
-68 9 -68 25 0 24 -6 24 277 -1z m-297 -750 c0 -18 -7 -20 -77 -20 -43 0 -88
-3 -101 -6 l-22 -6 2 -351 3 -351 98 -24 c82 -21 97 -27 97 -44 0 -22 5 -23
-132 14 l-78 20 0 388 0 389 23 4 c12 2 59 5 105 6 76 1 82 -1 82 -19z m580
-384 l0 -403 -72 -6 c-40 -4 -158 -11 -263 -17 -104 -6 -198 -12 -207 -14 -13
-3 -18 2 -18 20 0 20 5 24 33 24 17 0 131 7 252 15 121 8 223 15 228 15 4 0 7
164 7 365 l0 365 -260 0 c-253 0 -260 1 -260 20 0 20 7 20 280 20 l280 0 0
-404z m-720 227 c0 -65 3 -216 7 -335 l6 -218 -26 0 -27 0 0 335 c0 328 0 335
20 335 19 0 20 -7 20 -117z m400 33 c0 -63 0 -64 -31 -70 -40 -8 -103 -8 -123
0 -12 5 -16 21 -16 70 l0 64 85 0 85 0 0 -64z m190 -1 l0 -65 -75 0 -75 0 0
65 0 65 75 0 75 0 0 -65z m-510 -237 c0 -79 3 -187 7 -240 6 -96 5 -98 -15
-98 -22 0 -22 1 -22 233 0 129 3 237 7 240 19 19 23 -5 23 -135z m508 -85 l2
-223 -75 0 -75 0 0 219 0 220 38 3 c20 2 53 3 72 3 l35 0 3 -222z m-418 2 c0
-208 -1 -215 -20 -215 -19 0 -20 7 -20 215 0 208 1 215 20 215 19 0 20 -7 20
-215z m230 -10 l0 -225 -85 0 -85 0 0 225 0 225 85 0 85 0 0 -225z"/>
<path d="M1124 3482 l8 -608 -56 -10 -56 -11 0 164 c0 102 -4 163 -10 163 -13
0 -13 439 -1 492 5 21 6 36 2 34 -3 -2 -5 56 -3 130 3 117 2 134 -12 134 -14
0 -16 -20 -16 -152 l-1 -153 -49 -38 -49 -38 -4 138 -3 138 -2 -147 c-2 -121
1 -148 13 -155 12 -7 16 -48 21 -211 l7 -203 -23 -16 c-22 -16 -22 -19 -19
-162 l4 -146 -26 -3 -26 -3 -6 308 c-4 169 -7 385 -8 478 -1 94 -3 162 -6 153
-4 -15 -15 -17 -86 -13 -81 4 -71 0 31 -11 l52 -5 1 -382 c1 -210 4 -420 7
-467 l7 -85 166 -3 166 -2 6 -277 c3 -153 5 -278 3 -280 -1 -1 -112 -7 -247
-12 l-244 -10 247 5 247 4 4 -103 c1 -56 4 75 5 291 l2 392 -67 1 c-38 1 -80
0 -95 -1 -16 -1 -28 2 -28 7 0 20 215 44 375 43 194 -2 185 -2 185 9 0 5 -85
11 -189 13 -104 1 -192 5 -194 8 -3 3 -9 276 -13 608 -4 388 -11 602 -17 602
-7 0 -7 -206 -3 -608z m-135 -548 l1 -81 -50 -10 -50 -10 0 143 0 143 43 19
42 18 6 -70 c4 -39 7 -108 8 -152z"/>
<path d="M1552 3886 l-2 -158 -85 7 -86 7 3 -119 3 -118 85 -6 c47 -4 86 -6
88 -4 1 1 1 125 -1 276 -1 163 -3 210 -5 115z m-53 -192 l31 -6 0 -86 0 -85
-37 7 c-21 3 -50 6 -65 6 l-28 0 0 85 0 85 34 0 c18 0 48 -3 65 -6z"/>
<path d="M1300 2834 c-13 -4 -15 -61 -12 -449 2 -385 4 -445 17 -445 11 0 15
11 15 41 0 24 4 38 10 34 6 -3 10 -26 10 -51 0 -32 4 -44 15 -44 12 0 15 18
15 100 l0 99 41 -14 c23 -8 52 -15 65 -15 l24 0 0 300 0 300 -64 0 c-42 0 -66
-4 -69 -12 -3 -7 -6 26 -6 75 -1 84 -2 87 -23 86 -13 -1 -30 -3 -38 -5z m120
-434 l0 -230 -25 0 -25 0 0 230 0 230 25 0 25 0 0 -230z"/>
<path d="M3280 2325 l0 -405 43 0 c75 0 447 29 457 35 6 4 10 149 10 384 l0
378 -112 6 c-62 4 -177 7 -255 7 l-143 0 0 -405z m488 13 l2 -367 -32 -5 c-18
-3 -82 -8 -143 -11 -60 -3 -147 -8 -192 -11 l-83 -6 0 386 0 386 223 -2 222
-3 3 -367z"/>
<path d="M3350 2324 l0 -347 113 7 c61 3 149 9 195 13 l82 6 0 333 0 334 -195
0 -195 0 0 -346z m137 -36 l2 -188 -45 0 -44 0 0 191 0 190 43 -3 42 -3 2
-187z m153 -8 l0 -200 -39 0 c-74 0 -71 -10 -71 206 l0 194 55 0 55 0 0 -200z"/>
<path d="M1813 2713 l-23 -4 0 -353 0 -353 83 -22 c89 -23 127 -27 127 -11 0
6 -7 10 -15 10 -12 0 -15 20 -15 118 0 65 -3 227 -7 360 -4 177 -3 242 5 242
8 0 12 -41 15 -127 l3 -128 2 138 2 137 -77 -1 c-43 -1 -88 -4 -100 -6z m47
-353 c0 -283 0 -290 -20 -290 -20 0 -20 7 -20 290 0 283 0 290 20 290 20 0 20
-7 20 -290z"/>
<path d="M1603 2703 l-53 -4 0 -258 c0 -142 3 -285 6 -319 l7 -60 63 -16 c35
-9 70 -16 79 -16 13 0 15 40 15 340 l0 340 -32 -2 c-18 -1 -57 -3 -85 -5z m17
-317 c0 -241 -5 -285 -28 -261 -9 8 -16 479 -8 500 3 8 12 15 21 15 13 0 15
-33 15 -254z"/>
<path d="M0 2026 c0 -7 194 -316 580 -925 159 -251 167 -269 147 -364 -14 -71
-103 -164 -205 -216 -24 -12 -42 -25 -39 -28 10 -9 109 51 159 96 69 62 99
118 106 196 l5 64 -83 133 c-46 73 -119 189 -163 258 -44 69 -172 271 -284
450 -199 316 -223 352 -223 336z"/>
<path d="M3 1830 c3 -8 116 -248 252 -534 135 -285 245 -519 243 -521 -9 -8
-170 -38 -320 -60 -94 -14 -174 -27 -176 -30 -8 -7 -9 -7 185 20 195 28 317
56 372 85 20 11 30 19 23 20 -7 0 -26 -7 -42 -15 l-30 -15 -29 62 c-72 157
-460 968 -471 984 -6 11 -9 12 -7 4z"/>
</g>
</svg>
