<?xml version="1.0" standalone="no"?>
<!DOCTYPE svg PUBLIC "-//W3C//DTD SVG 20010904//EN"
 "http://www.w3.org/TR/2001/REC-SVG-20010904/DTD/svg10.dtd">
<svg version="1.0" xmlns="http://www.w3.org/2000/svg"
 width="728.000000pt" height="667.000000pt" viewBox="0 0 728.000000 667.000000"
 preserveAspectRatio="xMidYMid meet">

<g transform="translate(0.000000,667.000000) scale(0.100000,-0.100000)"
fill="#000000" stroke="none">
<path d="M3850 5369 c-69 -46 -222 -146 -340 -224 -118 -78 -220 -144 -226
-148 -7 -4 -54 8 -106 26 l-95 32 -264 -16 c-547 -35 -896 -59 -945 -64 l-52
-6 -203 -225 c-112 -124 -213 -227 -224 -229 -11 -3 -144 -28 -295 -55 -151
-28 -282 -53 -290 -55 -8 -3 -37 -40 -63 -82 -26 -43 -102 -162 -167 -265 -66
-103 -120 -192 -120 -197 0 -6 11 -16 24 -23 14 -7 50 -31 82 -52 48 -33 58
-37 65 -23 5 9 79 99 164 201 129 154 160 186 182 186 14 0 118 -12 230 -26
l205 -26 27 24 c31 29 116 103 377 331 l191 166 213 -39 c117 -21 214 -41 216
-43 2 -2 -43 -36 -101 -76 -58 -39 -105 -76 -105 -82 0 -6 15 1 33 15 19 15
36 26 38 26 2 0 2 -22 1 -50 -2 -27 -8 -50 -13 -50 -5 0 -9 -6 -9 -13 0 -9 33
-18 103 -29 56 -9 256 -40 444 -70 333 -51 343 -54 343 -75 0 -13 -1 -23 -3
-23 -3 0 -845 128 -894 136 l-43 7 0 44 c0 43 1 45 25 39 27 -7 35 8 9 18 -28
11 -52 6 -58 -10 -11 -28 -6 -101 7 -112 6 -5 95 -22 197 -36 102 -15 312 -46
466 -69 155 -24 287 -41 293 -39 6 2 11 17 11 33 l0 29 61 -3 c58 -2 62 -1 64
21 1 13 -2 25 -7 28 -4 3 -8 -3 -8 -14 0 -18 -3 -18 -77 -6 -43 7 -184 29
-313 49 -129 21 -309 49 -400 64 l-165 26 -3 48 -3 47 32 -7 c42 -8 31 13 -11
22 l-31 7 41 29 c22 16 42 29 45 29 3 0 5 -20 5 -45 0 -31 -5 -47 -15 -51 -8
-4 -15 -12 -15 -18 0 -12 28 -18 235 -51 222 -36 287 -46 365 -60 184 -33 397
-65 428 -65 l33 0 -3 63 c-3 60 -4 62 -31 65 -24 3 -28 7 -23 25 30 101 14
115 -80 69 l-64 -32 0 45 c0 55 -8 56 -91 14 -34 -17 -62 -29 -64 -27 -2 2 -1
15 2 29 4 22 29 40 146 105 78 43 192 106 252 139 61 34 211 117 334 185 l224
124 101 -26 c92 -23 1023 -268 1476 -389 102 -27 215 -57 253 -66 37 -9 67
-20 67 -23 0 -4 -52 -22 -115 -41 -63 -19 -111 -37 -107 -40 6 -5 314 -82 730
-181 23 -6 41 -12 39 -14 -2 -2 -74 -21 -160 -43 l-157 -38 0 28 c0 15 -4 30
-8 33 -7 4 -420 100 -519 121 l-33 7 0 76 c0 46 -4 72 -9 67 -5 -6 -11 -332
-13 -762 -2 -413 -6 -755 -10 -758 -3 -4 -72 -4 -152 0 l-146 8 -2 236 -3 236
-47 3 -48 3 0 343 0 344 36 -8 c20 -5 42 -6 49 -4 15 6 25 135 25 320 l0 133
-37 10 c-200 53 -687 171 -690 167 -2 -2 -5 -111 -6 -243 -1 -223 -1 -229 -7
-88 l-6 150 -2 -157 -2 -156 33 -7 c75 -15 68 24 65 -378 l-3 -361 -48 3 -49
3 4 -244 c2 -134 8 -249 12 -257 7 -11 -18 -12 -145 -7 -85 4 -187 9 -226 12
l-73 6 0 914 c0 603 -3 914 -10 914 -7 0 -10 -312 -10 -915 l0 -914 -32 -5
c-39 -6 -567 -56 -620 -59 -21 -1 -38 -7 -38 -13 0 -7 57 -13 173 -18 94 -3
236 -9 315 -13 l142 -6 0 -537 0 -536 -285 -24 -285 -24 0 -27 c0 -24 -4 -27
-49 -33 -45 -6 -50 -9 -53 -34 -3 -24 -8 -27 -45 -30 -40 -3 -43 -5 -43 -33 0
-16 -4 -29 -10 -29 -5 0 -165 -16 -354 -35 l-345 -35 -67 25 c-37 14 -69 23
-72 20 -6 -6 -14 -3 353 -135 661 -237 636 -229 742 -236 109 -7 149 -2 1543
198 388 56 725 101 750 100 24 0 47 3 50 7 3 4 311 51 685 105 714 101 739
105 732 112 -4 4 -1161 -159 -1397 -196 -47 -8 -105 -1 -388 48 -183 31 -329
58 -325 59 5 2 35 7 68 12 57 9 55 10 -22 4 -44 -3 -87 -5 -95 -6 -7 -1 -42 2
-78 7 l-65 8 3 631 c2 348 7 636 11 640 4 4 16 4 26 1 17 -7 18 -30 12 -537
l-7 -529 58 6 c31 3 246 22 477 41 231 19 467 40 524 45 58 6 117 10 133 10
l28 0 1 -102 c0 -79 3 -97 10 -78 6 14 9 68 7 120 l-3 95 -34 3 -34 4 6 975
c4 537 9 978 11 981 3 2 36 11 73 18 137 29 143 32 143 64 0 32 1 32 -153 65
-43 10 -76 19 -74 21 2 2 77 21 167 43 91 22 166 45 168 50 2 6 9 11 16 11 7
0 55 29 106 65 65 45 111 68 147 76 30 7 52 17 50 23 -2 6 -153 58 -335 116
-182 58 -334 108 -337 112 -9 9 36 31 108 54 31 10 57 23 57 29 0 6 -30 21
-67 32 -38 12 -140 44 -228 72 -88 27 -290 90 -450 140 -159 49 -492 153 -740
230 -551 171 -810 249 -850 256 -25 5 -49 -7 -155 -76z m140 38 c0 -2 9 -77
20 -167 11 -90 17 -167 13 -171 -4 -4 -89 -53 -188 -109 -99 -56 -308 -174
-465 -263 -266 -150 -335 -192 -285 -172 11 4 28 7 37 7 10 0 17 4 15 10 -1 6
5 13 13 15 13 4 13 3 0 -6 -58 -41 57 20 441 235 243 135 443 243 447 240 7
-8 36 9 -318 -186 -173 -96 -385 -213 -470 -260 -130 -73 -157 -85 -168 -74
-17 18 -23 17 -50 -2 -13 -9 -25 -14 -27 -13 -2 2 -18 55 -36 118 -33 112 -34
114 -14 128 24 18 322 214 583 383 106 69 247 162 315 206 111 75 137 90 137
81z m144 -31 c237 -74 903 -279 946 -291 52 -15 169 -51 575 -176 160 -49 335
-103 390 -120 55 -17 119 -37 143 -45 23 -8 49 -14 57 -14 8 0 15 -5 15 -11 0
-6 9 -8 20 -4 11 4 20 2 20 -4 0 -6 -4 -11 -9 -11 -5 0 -17 -3 -27 -7 -12 -4
-15 -3 -10 5 10 16 0 15 -21 -2 -24 -20 -96 -72 -162 -120 l-54 -38 -116 32
c-64 17 -258 70 -431 116 -458 123 -1027 277 -1241 336 l-185 50 -18 147 c-10
80 -20 156 -23 169 -7 29 -1 29 131 -12z m-355 -474 c-156 -87 -358 -200 -447
-251 -90 -51 -165 -91 -167 -89 -3 3 75 48 650 373 121 69 227 125 234 125 8
0 -113 -71 -270 -158z m367 132 c36 -9 63 -19 60 -21 -2 -2 -23 1 -46 7 -23 6
-44 10 -46 7 -2 -2 41 -16 97 -31 56 -15 103 -25 106 -23 2 3 -19 10 -47 17
-28 7 -49 14 -47 16 2 3 59 -10 126 -27 66 -18 119 -34 117 -36 -2 -3 -23 1
-46 7 -23 6 -44 9 -46 7 -2 -2 59 -21 137 -41 77 -21 144 -35 147 -32 3 3 -3
6 -13 6 -10 0 -16 2 -13 5 3 4 18 3 33 -1 17 -4 23 -9 15 -14 -7 -4 8 -12 35
-19 26 -7 50 -9 53 -6 3 3 -3 5 -13 5 -10 0 -16 2 -13 5 3 4 18 3 33 -1 20 -5
24 -9 13 -16 -8 -6 -1 -7 22 -3 22 4 30 3 22 -3 -17 -12 181 -65 211 -57 15 4
18 3 9 -3 -17 -12 144 -54 178 -46 17 4 21 3 12 -4 -18 -12 63 -34 98 -26 18
4 21 3 12 -4 -18 -12 63 -34 98 -26 21 5 22 4 10 -6 -12 -9 -10 -10 13 -5 21
4 27 3 21 -6 -5 -9 1 -10 22 -5 23 5 26 4 14 -5 -12 -8 -7 -9 20 -5 27 5 31 3
20 -5 -12 -8 -9 -10 12 -6 17 2 25 0 21 -6 -4 -6 5 -7 23 -3 23 5 26 4 14 -5
-12 -8 -7 -9 20 -5 27 5 31 3 20 -5 -11 -8 -7 -9 20 -5 27 5 31 3 20 -5 -12
-8 -9 -10 12 -6 17 2 25 0 21 -6 -4 -6 5 -7 23 -3 23 5 26 4 14 -4 -12 -9 -10
-11 12 -7 15 2 25 1 23 -3 -7 -11 131 -41 152 -33 17 6 17 6 2 -10 -15 -15
-33 -12 -235 42 -121 32 -401 107 -624 165 -223 59 -461 123 -530 141 -69 18
-215 57 -325 86 -110 28 -204 56 -210 61 -6 6 -5 12 5 18 19 12 10 13 86 -6z
m-979 -21 c46 -15 83 -30 83 -34 0 -3 -77 -57 -170 -118 l-170 -113 -343 72
c-188 39 -412 85 -497 102 -85 17 -158 34 -162 37 -4 4 156 17 355 30 199 14
439 30 532 36 264 19 279 18 372 -12z m-1423 -179 c-54 -59 -137 -149 -184
-200 -47 -51 -89 -93 -94 -93 -5 -1 15 25 45 57 88 94 254 274 289 315 18 21
35 35 38 33 3 -3 -40 -54 -94 -112z m821 -39 c121 -25 251 -52 288 -60 38 -7
69 -15 71 -16 8 -12 66 -222 63 -226 -11 -10 -60 11 -64 28 -6 22 -15 23 -58
8 -45 -17 -105 -4 -105 21 0 15 -7 20 -28 20 -15 0 -33 -5 -39 -11 -15 -15
-103 -1 -103 17 0 24 -32 33 -62 18 -26 -13 -50 -11 -273 31 -135 25 -249 45
-253 45 -5 0 -20 26 -35 58 -63 140 -87 195 -87 202 0 7 133 -19 685 -135z
m1960 135 c13 -5 14 -9 5 -9 -8 0 -24 4 -35 9 -13 5 -14 9 -5 9 8 0 24 -4 35
-9z m-2652 -17 c2 -10 27 -68 55 -130 l50 -112 -289 -258 c-159 -142 -292
-259 -297 -261 -8 -2 -102 150 -102 166 0 5 37 49 83 97 88 94 114 132 51 75
l-39 -35 34 37 c19 21 37 35 41 33 7 -5 55 44 269 273 68 72 127 132 131 132
4 0 10 -8 13 -17z m2704 1 c-3 -3 -12 -4 -19 -1 -8 3 -5 6 6 6 11 1 17 -2 13
-5z m40 -10 c-3 -3 -12 -4 -19 -1 -8 3 -5 6 6 6 11 1 17 -2 13 -5z m110 -30
c-3 -3 -12 -4 -19 -1 -8 3 -5 6 6 6 11 1 17 -2 13 -5z m150 -40 c-3 -3 -12 -4
-19 -1 -8 3 -5 6 6 6 11 1 17 -2 13 -5z m58 -14 c13 -5 14 -9 5 -9 -8 0 -24 4
-35 9 -13 5 -14 9 -5 9 8 0 24 -4 35 -9z m52 -16 c-3 -3 -12 -4 -19 -1 -8 3
-5 6 6 6 11 1 17 -2 13 -5z m150 -40 c-3 -3 -12 -4 -19 -1 -8 3 -5 6 6 6 11 1
17 -2 13 -5z m-250 -108 c164 -40 317 -79 341 -85 l42 -12 0 -211 c0 -195 -1
-210 -17 -206 -10 3 -165 33 -345 68 l-328 64 0 228 c0 125 2 228 5 228 2 0
138 -33 302 -74z m400 68 c-3 -3 -12 -4 -19 -1 -8 3 -5 6 6 6 11 1 17 -2 13
-5z m110 -30 c-3 -3 -12 -4 -19 -1 -8 3 -5 6 6 6 11 1 17 -2 13 -5z m-3400
-51 c0 -11 -48 -60 -120 -123 -121 -105 -159 -134 -122 -89 l20 24 -22 -19
c-12 -10 -21 -23 -20 -30 1 -6 -4 -10 -11 -8 -8 1 -11 -1 -8 -6 3 -5 -54 -60
-127 -123 -170 -147 -175 -151 -181 -140 -4 5 71 78 166 163 95 84 226 201
292 261 66 59 122 107 126 107 3 0 6 -8 7 -17z m265 -40 c115 -21 208 -41 208
-46 0 -4 -15 -5 -32 -2 -18 3 -120 21 -226 40 -106 19 -195 35 -197 35 -3 0
-5 5 -5 11 0 7 9 9 22 6 13 -4 116 -23 230 -44z m3923 7 c13 -6 15 -9 5 -9 -8
0 -22 4 -30 9 -18 12 -2 12 25 0z m70 -20 c13 -5 14 -9 5 -9 -8 0 -24 4 -35 9
-13 5 -14 9 -5 9 8 0 24 -4 35 -9z m-31 -24 c44 -13 180 -52 301 -86 121 -34
226 -66 234 -70 9 -5 -18 -28 -85 -75 -54 -37 -105 -70 -114 -72 -14 -4 -728
171 -737 181 -2 2 30 14 72 27 42 12 79 28 82 36 3 7 11 13 18 13 7 0 35 15
61 34 27 19 57 35 68 35 10 1 55 -10 100 -23z m-3684 1 c0 -24 -32 -107 -41
-107 -5 0 -9 -5 -9 -11 0 -6 6 -9 14 -6 8 3 17 1 19 -6 3 -8 10 -7 24 6 17 15
27 16 64 8 26 -6 48 -6 53 -1 5 5 -3 12 -20 15 -16 4 -33 8 -39 9 -5 2 15 19
45 38 40 26 56 32 58 22 5 -20 -18 -85 -37 -108 -15 -18 -15 -19 1 -13 9 3 19
1 21 -6 3 -8 10 -7 24 6 16 14 28 16 67 8 34 -6 46 -5 43 3 -2 6 -19 13 -37
16 l-33 5 59 37 c32 20 60 32 62 27 5 -14 -28 -109 -39 -109 -5 0 -9 -4 -9 -9
0 -15 38 -19 57 -6 12 9 33 12 61 8 28 -4 42 -2 42 6 0 6 -13 11 -30 11 -16 0
-30 4 -30 8 0 4 25 22 55 39 44 25 55 29 55 16 0 -30 -24 -95 -37 -100 -19 -7
-16 -20 5 -25 10 -3 27 1 38 9 13 9 32 12 63 7 31 -5 42 -4 37 5 -4 6 -18 11
-31 11 -42 0 -35 15 26 48 51 28 59 30 59 15 -1 -26 -37 -103 -50 -103 -5 0
-10 -4 -10 -9 0 -12 52 -11 68 1 7 6 30 8 52 4 51 -8 53 9 3 21 l-38 9 63 32
c56 29 62 30 62 14 0 -35 -22 -82 -43 -94 l-21 -11 23 -8 c13 -5 30 -5 41 1
10 6 32 10 49 10 30 0 31 -1 31 -46 0 -43 -2 -46 -22 -41 -13 3 -236 40 -495
83 l-473 79 0 48 c0 47 1 49 25 44 16 -3 24 0 22 7 -2 6 -17 13 -32 16 l-29 5
49 37 c55 41 65 45 65 25z m27 -9 c-3 -8 -6 -5 -6 6 -1 11 2 17 5 13 3 -3 4
-12 1 -19z m170 -30 c-3 -8 -6 -5 -6 6 -1 11 2 17 5 13 3 -3 4 -12 1 -19z
m-180 -33 c-6 -19 -15 -35 -20 -35 -5 0 -6 7 -3 16 3 9 9 27 12 40 3 13 10 22
14 19 5 -3 3 -21 -3 -40z m83 35 c0 -5 -11 -10 -24 -10 -14 0 -28 5 -31 10 -4
6 7 10 24 10 17 0 31 -4 31 -10z m267 -32 c-3 -8 -6 -5 -6 6 -1 11 2 17 5 13
3 -3 4 -12 1 -19z m-298 9 c-2 -1 -12 -9 -21 -16 -15 -12 -18 -11 -18 3 0 10
8 16 22 16 12 0 19 -1 17 -3z m191 -7 c12 -8 9 -10 -12 -10 -16 0 -28 5 -28
10 0 13 20 13 40 0z m-1435 -32 c-15 -18 -48 -55 -73 -82 l-45 -48 -136 21
c-75 11 -162 24 -194 27 -32 4 -55 9 -53 11 5 5 485 100 514 102 8 1 3 -12
-13 -31z m1375 28 c0 -1 -5 -17 -11 -35 -15 -43 -30 -40 -16 4 6 19 14 35 19
35 4 0 8 -2 8 -4z m334 -21 c3 -8 1 -15 -4 -15 -6 0 -10 7 -10 15 0 8 2 15 4
15 2 0 6 -7 10 -15z m-309 -5 c-3 -5 -11 -10 -16 -10 -6 0 -7 5 -4 10 3 6 11
10 16 10 6 0 7 -4 4 -10z m205 0 c0 -5 -11 -10 -25 -10 -14 0 -25 5 -25 10 0
6 11 10 25 10 14 0 25 -4 25 -10z m-73 -35 c-6 -19 -14 -35 -19 -35 -10 0 -10
1 3 39 15 43 30 40 16 -4z m330 3 c-3 -8 -6 -5 -6 6 -1 11 2 17 5 13 3 -3 4
-12 1 -19z m-170 -33 c-6 -19 -15 -35 -20 -35 -5 0 -6 8 -2 18 4 9 10 25 12
35 3 9 9 17 13 17 5 0 3 -16 -3 -35z m328 16 c3 -5 1 -12 -5 -16 -5 -3 -10 1
-10 9 0 18 6 21 15 7z m2758 -82 c205 -51 374 -93 376 -95 13 -12 -11 -11 -59
2 -30 8 -201 50 -379 94 -294 72 -358 90 -322 90 7 0 180 -41 384 -91z m-2933
26 c-15 -39 -23 -25 -8 16 6 18 13 29 15 23 2 -6 -1 -24 -7 -39z m3590 35 c0
-5 -5 -10 -11 -10 -5 0 -7 5 -4 10 3 6 8 10 11 10 2 0 4 -4 4 -10z m-5756 -55
c93 -14 183 -25 200 -25 28 0 35 -7 80 -86 26 -47 46 -87 45 -89 -2 -2 -98 10
-214 26 -115 16 -213 29 -216 29 -4 0 -70 98 -112 167 -6 9 -1 11 20 8 15 -3
104 -17 197 -30z m2323 5 c-6 -16 -15 -30 -19 -30 -4 0 -2 14 3 30 6 17 15 30
19 30 5 0 3 -13 -3 -30z m-2498 -73 c30 -45 49 -83 45 -90 -4 -6 -77 -100
-163 -207 -85 -107 -156 -197 -158 -199 -3 -5 -40 20 -81 56 l-32 28 90 140
c212 330 235 364 241 357 3 -4 30 -42 58 -85z m4906 4 c72 -16 185 -42 253
-58 120 -27 122 -28 122 -55 0 -31 4 -30 -90 -7 -19 4 -120 26 -225 49 -241
51 -225 45 -225 81 0 24 4 29 18 25 9 -3 76 -18 147 -35z m-858 -92 c128 -24
233 -46 233 -49 0 -3 -24 -6 -53 -7 -41 -1 -47 1 -27 8 19 6 12 7 -25 4 -36
-3 -43 -2 -25 5 23 7 23 8 4 9 -12 1 -37 4 -55 7 -27 5 -31 3 -19 -6 13 -10
12 -11 -3 -6 -10 3 -26 6 -35 7 -14 0 -13 2 3 10 15 7 10 8 -18 4 -44 -7 -80
2 -71 17 5 7 -9 9 -42 5 -36 -5 -44 -4 -29 3 16 8 12 9 -17 5 -47 -7 -85 2
-85 21 0 9 7 14 16 11 9 -2 121 -23 248 -48z m1105 -40 c259 -56 388 -88 388
-96 0 -7 -3 -13 -7 -13 -5 -1 -185 36 -400 82 -349 73 -393 85 -393 101 0 11
5 17 13 14 6 -2 186 -42 399 -88z m-5093 10 c-8 -5 -9 -9 -4 -9 6 0 5 -4 -2
-8 -12 -8 -139 -160 -241 -289 -31 -40 -61 -72 -65 -73 -10 0 -9 1 173 229 80
100 146 177 149 170 2 -6 -3 -15 -10 -20z m3799 16 l42 -7 0 -65 0 -66 -37 7
c-21 3 -48 6 -60 6 -22 0 -23 4 -23 71 0 62 2 70 18 65 9 -2 36 -8 60 -11z
m-3533 -25 c94 -12 179 -25 190 -31 18 -8 17 -9 -5 -5 -14 3 -106 14 -205 26
-99 12 -189 26 -200 31 -16 7 -12 8 15 5 19 -3 112 -14 205 -26z m4810 -49
c243 -52 361 -81 345 -85 -120 -29 -150 -32 -150 -13 0 10 -81 30 -282 71
-156 31 -289 56 -295 56 -7 0 -13 11 -13 25 0 14 6 25 13 25 6 0 179 -36 382
-79z m-1218 -28 c-2 -21 -4 -6 -4 32 0 39 2 55 4 38 2 -18 2 -50 0 -70z m153
-1 l0 -64 -31 6 c-17 3 -44 6 -60 6 l-29 0 0 68 0 68 60 -10 60 -10 0 -64z
m-133 11 c-3 -10 -5 -2 -5 17 0 19 2 27 5 18 2 -10 2 -26 0 -35z m160 -45 c-2
-18 -4 -4 -4 32 0 36 2 50 4 33 2 -18 2 -48 0 -65z m116 72 c14 0 18 -7 15
-31 -3 -28 -8 -33 -48 -45 -25 -8 -48 -14 -52 -14 -5 0 -8 23 -8 51 l0 52 38
-7 c20 -3 45 -6 55 -6z m77 -325 c0 -192 -4 -335 -9 -335 -5 0 -7 137 -5 328
3 180 5 330 4 335 0 4 2 7 5 7 3 0 5 -151 5 -335z m705 286 c132 -28 257 -53
278 -57 20 -3 39 -10 42 -14 5 -7 -12 -2001 -17 -2005 -2 -1 -45 -5 -95 -9
l-93 -7 0 46 c0 43 -1 45 -30 45 l-30 0 0 285 0 285 29 0 c24 0 29 5 33 30 3
17 2 33 -2 35 -4 2 -86 7 -183 11 -163 7 -177 6 -177 -10 0 -9 5 -14 10 -11 6
3 10 -1 10 -9 0 -9 -4 -16 -10 -16 -5 0 -10 -4 -10 -10 0 -5 7 -10 15 -10 13
0 15 -40 15 -300 0 -293 0 -300 -20 -300 -17 0 -20 -7 -20 -49 0 -49 0 -49
-37 -55 -21 -3 -74 -8 -118 -11 -44 -3 -97 -8 -117 -11 l-38 -6 0 500 0 499
146 6 c80 3 148 7 150 10 2 2 4 270 4 595 1 448 3 592 12 592 7 0 120 -22 253
-49z m-738 -63 c-2 -18 -4 -4 -4 32 0 36 2 50 4 33 2 -18 2 -48 0 -65z m-320
5 c-3 -10 -5 -4 -5 12 0 17 2 24 5 18 2 -7 2 -21 0 -30z m-27 6 c16 -10 -36
-4 -100 12 -25 6 -18 6 25 2 33 -3 67 -9 75 -14z m285 -4 l-40 -14 38 6 c30 4
37 2 37 -12 0 -14 -6 -16 -26 -11 -15 4 -40 10 -57 13 l-31 6 34 13 c19 7 46
12 60 12 19 0 16 -3 -15 -13z m-302 -24 c4 -5 5 -20 1 -35 -4 -18 -12 -26 -28
-25 -21 0 -21 1 -1 10 16 8 14 8 -10 4 -16 -2 -40 -7 -52 -11 -21 -6 -23 -3
-23 36 l0 43 53 -7 c28 -4 56 -11 60 -15z m192 -2 c9 -9 -25 -5 -95 12 -26 6
-20 7 25 3 33 -3 64 -10 70 -15z m-168 -376 c-1 -71 -3 -13 -3 127 0 140 2
198 3 128 2 -71 2 -185 0 -255z m73 362 c14 4 20 3 16 -3 -3 -5 -17 -12 -31
-14 -20 -4 -25 -1 -25 16 0 16 3 17 9 7 6 -8 16 -11 31 -6z m225 -4 c26 -6 31
-9 15 -9 -14 -1 -43 3 -65 7 -26 6 -31 9 -15 9 14 1 43 -3 65 -7z m-145 -29
c0 -26 -4 -30 -51 -40 -71 -17 -79 -16 -79 12 0 21 8 27 48 39 72 23 82 21 82
-11z m27 -14 c-3 -7 -5 -2 -5 12 0 14 2 19 5 13 2 -7 2 -19 0 -25z m71 21 c14
0 13 -2 -3 -9 -31 -13 -45 -11 -45 6 0 11 5 14 16 10 9 -3 23 -6 32 -7z m62
-58 l0 -49 -44 -11 c-65 -16 -66 -16 -66 38 0 48 1 49 38 59 69 19 72 17 72
-37z m-346 29 c6 0 13 -11 14 -24 1 -21 -5 -25 -58 -39 l-60 -15 0 28 c0 22 6
29 33 38 l32 11 -35 -4 c-28 -4 -31 -3 -15 5 11 5 33 7 49 5 16 -3 34 -5 40
-5z m373 -222 c-1 -46 -3 -11 -3 77 0 88 2 125 3 83 2 -42 2 -114 0 -160z
m-150 165 c-3 -10 -5 -2 -5 17 0 19 2 27 5 18 2 -10 2 -26 0 -35z m-37 -11 l0
-49 -51 -11 c-80 -19 -81 -18 -77 35 3 47 3 47 48 59 78 21 80 20 80 -34z
m-174 -44 c-1 -41 -1 -42 -51 -55 -68 -17 -65 -19 -65 32 0 44 0 44 43 55 23
6 47 12 52 14 18 6 23 -3 21 -46z m211 -35 c-3 -10 -5 -2 -5 17 0 19 2 27 5
18 2 -10 2 -26 0 -35z m123 38 c0 -8 -74 -31 -99 -31 -26 0 -8 19 27 28 49 13
72 14 72 3z m-143 -33 c-3 -8 -6 -5 -6 6 -1 11 2 17 5 13 3 -3 4 -12 1 -19z
m136 -155 c-3 -87 -7 -160 -9 -162 -2 -2 -19 0 -39 3 l-35 7 -2 127 -2 127 -6
-130 -6 -130 -2 147 -2 146 38 10 c75 20 71 30 65 -145z m-163 2 l0 -145 -29
0 c-16 0 -43 3 -60 6 l-32 7 3 125 3 126 45 12 c25 7 51 12 58 13 9 1 12 -34
12 -144z m-194 100 c-11 -8 -28 -15 -37 -15 -10 0 -24 -3 -33 -6 -9 -3 -16 -1
-16 5 0 11 50 29 85 30 20 0 20 0 1 -14z m31 -167 c-2 -35 -3 -9 -3 57 0 66 1
94 3 63 2 -32 2 -86 0 -120z m190 95 c-2 -16 -4 -3 -4 27 0 30 2 43 4 28 2
-16 2 -40 0 -55z m-214 -56 l2 -97 -47 0 -48 0 0 94 0 95 28 4 c64 10 64 11
65 -96z m374 -124 c-3 -10 -5 -4 -5 12 0 17 2 24 5 18 2 -7 2 -21 0 -30z
m-560 -215 c-1 -46 -3 -11 -3 77 0 88 2 125 3 83 2 -42 2 -114 0 -160z m305
203 c150 -17 303 -33 341 -37 l67 -6 0 -224 0 -224 -46 0 c-68 0 -648 30 -652
34 -3 4 10 486 14 486 1 0 125 -13 276 -29z m-412 -486 c162 -8 337 -15 388
-17 97 -3 130 -18 40 -18 -29 0 -138 -7 -243 -15 -160 -13 -253 -13 -590 -4
-220 7 -407 15 -415 20 -10 5 5 9 40 9 30 1 132 10 225 19 219 24 209 23 555
6z m869 -41 c8 -7 -224 -2 -254 6 -16 4 33 5 110 2 77 -2 142 -6 144 -8z
m-359 -659 c0 -584 -2 -665 -15 -665 -10 0 -15 10 -15 29 0 25 -4 29 -40 35
-34 5 -40 10 -40 31 0 26 -4 29 -52 39 -21 5 -28 12 -28 30 0 13 -6 26 -12 29
-7 2 -97 17 -200 33 l-188 28 0 393 c0 386 0 393 20 393 19 0 20 7 20 125 l0
125 43 1 c40 0 499 35 505 38 1 0 2 -298 2 -664z m-913 -177 c-1 -150 -2 -28
-2 272 0 300 1 422 2 273 2 -150 2 -396 0 -545z m271 802 l82 0 0 -118 0 -119
-135 5 -135 5 0 -422 0 -421 -30 0 -30 0 0 541 0 542 83 -6 c45 -4 119 -7 165
-7z m970 -15 c1 -14 -2 -25 -6 -25 -4 0 -9 11 -10 25 -1 14 2 25 6 25 4 0 9
-11 10 -25z m-79 3 c11 -10 14 -10 18 0 7 17 23 15 23 -4 0 -8 -4 -13 -9 -9
-5 3 -12 2 -14 -2 -3 -5 -46 -7 -96 -5 -71 3 -91 7 -91 18 0 19 149 20 169 2z
m7 -59 c12 -9 15 -9 10 -1 -4 7 -1 12 8 12 9 0 16 -4 16 -9 0 -18 -42 -23
-126 -16 -66 5 -84 10 -84 22 0 13 13 15 79 11 48 -3 87 -10 97 -19z m61 -692
c-1 -122 -2 -22 -2 223 0 245 1 345 2 222 2 -122 2 -322 0 -445z m-57 638 c11
-13 1 -15 -84 -15 -79 0 -96 3 -96 15 0 12 16 15 84 15 62 0 87 -4 96 -15z
m30 -1 c0 -14 -3 -14 -15 -4 -8 7 -15 14 -15 16 0 2 7 4 15 4 8 0 15 -7 15
-16z m-39 -45 c35 -18 13 -24 -80 -21 -71 3 -91 7 -91 18 0 11 17 14 76 14 41
0 84 -5 95 -11z m39 -5 c0 -8 -4 -12 -10 -9 -5 3 -10 10 -10 16 0 5 5 9 10 9
6 0 10 -7 10 -16z m623 -31 c71 -4 97 -10 97 -20 0 -15 -86 -17 -227 -6 -60 4
-83 10 -83 19 0 16 56 18 213 7z m-623 -23 c0 -15 -32 -20 -121 -20 -73 0 -89
3 -89 15 0 13 17 15 105 14 58 -1 105 -5 105 -9z m-952 -36 l52 -7 0 -378 0
-378 -32 -5 c-18 -3 -63 -8 -100 -11 l-68 -6 0 161 c0 136 2 160 15 160 8 0
15 5 15 10 0 6 -7 10 -15 10 -13 0 -15 31 -15 219 0 201 2 220 18 224 27 7 72
7 130 1z m1604 -256 c-1 -145 -4 -274 -6 -288 -1 -14 -4 104 -5 263 0 158 2
287 7 287 4 0 6 -118 4 -262z m-683 240 c11 -10 13 -10 7 0 -4 7 -1 12 8 12
21 0 21 -16 0 -24 -9 -3 -56 -6 -105 -6 -72 0 -89 3 -89 15 0 12 16 15 83 15
53 0 88 -5 96 -12z m511 -43 l0 -55 -35 0 -35 0 0 55 0 55 35 0 35 0 0 -55z
m110 0 l0 -55 -35 0 -35 0 0 55 0 55 35 0 35 0 0 -55z m37 -27 c-2 -18 -4 -6
-4 27 0 33 2 48 4 33 2 -15 2 -42 0 -60z m-666 22 c39 -21 17 -30 -76 -30 -88
0 -95 1 -95 20 0 18 7 20 76 20 41 0 84 -5 95 -10z m39 -6 c0 -8 -4 -12 -10
-9 -5 3 -10 10 -10 16 0 5 5 9 10 9 6 0 10 -7 10 -16z m-31 -56 c11 -10 13
-10 7 0 -4 7 -1 12 8 12 21 0 21 -16 0 -24 -9 -3 -56 -6 -105 -6 -72 0 -89 3
-89 15 0 12 16 15 83 15 53 0 88 -5 96 -12z m528 -4 c-3 -3 -12 -4 -19 -1 -8
3 -5 6 6 6 11 1 17 -2 13 -5z m111 -1 c-10 -2 -28 -2 -40 0 -13 2 -5 4 17 4
22 1 32 -1 23 -4z m-128 -218 c0 -157 -3 -205 -12 -205 -7 0 -23 -3 -35 -6
l-23 -6 0 211 0 211 35 0 35 0 0 -205z m108 3 l-3 -203 -32 -3 -33 -3 0 205 0
206 35 0 35 0 -2 -202z m39 180 c-3 -8 -6 -5 -6 6 -1 11 2 17 5 13 3 -3 4 -12
1 -19z m-658 -10 c11 -10 13 -10 7 0 -4 7 -1 12 8 12 24 0 19 -19 -6 -24 -13
-3 -60 -8 -105 -11 -79 -6 -83 -5 -83 14 0 20 6 21 83 21 53 0 88 -5 96 -12z
m-10 -50 c11 -10 14 -10 18 0 6 16 23 15 23 -2 0 -21 -23 -26 -121 -26 -71 0
-89 3 -89 15 0 10 16 15 63 18 34 2 69 4 78 5 8 1 21 -4 28 -10z m11 -60 c0
-9 3 -8 10 2 5 8 12 11 17 7 15 -16 -24 -27 -99 -27 -42 0 -83 -3 -92 -6 -12
-4 -16 0 -16 15 0 20 5 21 90 21 65 0 90 -3 90 -12z m527 -200 c-1 -40 -3 -8
-3 72 0 80 2 112 3 73 2 -40 2 -106 0 -145z m-531 151 c4 -8 9 -7 15 2 4 7 11
10 15 6 11 -11 -2 -19 -48 -28 -73 -14 -158 -11 -158 6 0 10 16 15 58 18 31 2
69 4 84 5 15 1 30 -3 34 -9z m23 -65 c-8 -10 -37 -14 -105 -14 -79 0 -94 2
-94 16 0 14 13 15 95 12 52 -1 95 1 95 5 0 5 5 5 10 2 8 -5 7 -11 -1 -21z
m-21 -46 c9 -9 12 -9 12 0 0 7 5 12 10 12 17 0 11 -18 -7 -24 -10 -2 -57 -7
-105 -11 -75 -6 -88 -5 -88 8 0 17 27 23 116 25 28 1 55 -3 62 -10z m1 -50
c11 -10 13 -10 7 0 -4 7 -1 12 8 12 9 0 16 -4 16 -9 0 -17 -63 -31 -136 -31
-58 0 -74 3 -74 15 0 11 17 15 73 18 39 1 77 4 83 5 5 1 16 -4 23 -10z m18
-62 c-7 -7 -52 -15 -105 -19 -76 -6 -92 -4 -92 8 0 16 36 24 130 28 76 2 85 0
67 -17z m733 -64 l0 -39 -127 -12 c-71 -6 -143 -11 -160 -11 -32 0 -33 2 -33
39 l0 39 98 7 c53 3 104 8 112 9 8 2 36 4 63 5 l47 1 0 -38z m-733 11 c-7 -7
-52 -16 -105 -19 -80 -6 -92 -5 -92 9 0 17 47 24 157 23 43 0 51 -3 40 -13z
m403 -33 c0 -22 -4 -40 -10 -40 -5 0 -10 18 -10 40 0 22 5 40 10 40 6 0 10
-18 10 -40z m-420 -15 c7 -9 11 -17 9 -19 -2 -2 -46 -6 -96 -8 -74 -4 -93 -3
-93 8 0 16 25 23 100 27 30 2 58 4 61 5 4 1 12 -5 19 -13z m25 5 c3 -5 2 -10
-4 -10 -5 0 -13 5 -16 10 -3 6 -2 10 4 10 5 0 13 -4 16 -10z m-14 -59 c-15
-10 -182 -24 -189 -16 -11 11 9 16 99 23 97 8 113 7 90 -7z m-706 -93 c83 -12
153 -24 158 -28 4 -3 -133 -19 -305 -34 -294 -25 -328 -26 -558 -17 -135 5
-258 14 -275 20 -16 5 -23 10 -14 10 9 1 121 10 250 21 129 10 263 21 299 24
36 3 94 9 130 14 107 15 158 13 315 -10z m235 -63 c0 -8 -1 -15 -2 -15 -2 -1
-147 -16 -323 -33 -264 -27 -321 -30 -323 -19 -2 7 -2 16 1 19 3 2 115 15 249
28 401 40 398 39 398 20z m-1210 -16 c38 -8 50 -15 50 -29 0 -19 -3 -18 -107
5 -25 6 -32 35 -8 35 7 0 37 -5 65 -11z m493 -28 c40 -1 47 -4 47 -21 0 -18
-6 -19 -132 -14 -273 10 -338 15 -338 28 0 7 2 15 4 17 2 2 87 1 188 -2 100
-4 204 -7 231 -8z m712 8 c-38 -11 -629 -69 -686 -68 -58 2 -44 4 226 29 127
12 282 28 345 35 137 15 155 16 115 4z m-1253 -19 c20 -6 63 -14 95 -19 l58
-9 -52 -1 c-54 -1 -151 17 -167 31 -14 11 21 10 66 -2z m1338 -14 c0 -16 -18
-19 -240 -41 -85 -9 -209 -23 -275 -30 -167 -20 -185 -20 -185 5 0 17 7 20 43
21 23 0 157 13 297 28 304 34 360 36 360 17z m-1367 -16 c44 -10 57 -17 57
-31 0 -23 2 -23 -85 -1 -51 13 -71 23 -73 36 -3 15 1 18 20 13 12 -3 49 -11
81 -17z m405 -7 c-21 -2 -55 -2 -75 0 -21 2 -4 4 37 4 41 0 58 -2 38 -4z m979
-9 c-9 -10 -686 -84 -757 -83 -50 1 -35 4 70 15 74 8 250 27 390 43 280 32
306 34 297 25z m-749 -19 c6 -3 12 -14 12 -26 0 -18 -4 -21 -32 -16 -18 3
-147 9 -285 13 -241 6 -253 8 -253 26 0 19 8 19 273 13 149 -4 278 -8 285 -10z
m-658 -11 c30 -9 111 -20 180 -24 l125 -8 -150 3 c-111 3 -168 9 -220 23 -65
19 -67 20 -30 21 22 0 65 -6 95 -15z m1470 -3 c0 -23 0 -22 -255 -51 -99 -11
-249 -29 -332 -38 l-153 -18 0 20 c0 20 15 23 363 62 199 23 365 42 370 43 4
0 7 -8 7 -18z m229 -6 c75 -13 242 -43 371 -65 129 -23 236 -43 238 -44 1 -2
-88 -16 -198 -31 -223 -31 -201 -32 -462 22 l-128 26 0 59 c0 70 -11 68 179
33z m-1809 -4 c19 -6 54 -15 78 -21 32 -8 42 -16 42 -31 0 -17 -4 -19 -22 -13
-13 4 -52 15 -88 24 -44 11 -66 22 -68 33 -4 19 8 21 58 8z m633 -28 c-34 -2
-93 -2 -130 0 -37 2 -9 3 62 3 72 0 102 -1 68 -3z m-113 -18 c270 -8 300 -11
300 -37 0 -18 -5 -19 -72 -14 -40 3 -163 8 -273 11 -110 3 -233 8 -272 11 -64
6 -73 9 -73 26 0 19 5 20 93 14 50 -3 184 -8 297 -11z m1098 -22 c4 -36 -11
-31 215 -74 64 -13 117 -26 117 -29 0 -3 -152 -26 -338 -53 -185 -26 -544 -77
-797 -113 -253 -36 -493 -67 -535 -71 -137 -10 -200 6 -622 159 l-393 143 65
7 c36 4 185 19 333 34 l267 26 98 -26 c89 -24 126 -27 452 -40 l355 -14 350
43 c193 24 368 42 390 42 37 -2 40 -4 43 -34z"/>
<path d="M3100 4520 c-9 -6 -10 -10 -3 -10 6 0 15 5 18 10 8 12 4 12 -15 0z"/>
<path d="M4078 5033 c7 -3 16 -2 19 1 4 3 -2 6 -13 5 -11 0 -14 -3 -6 -6z"/>
<path d="M4338 4963 c7 -3 16 -2 19 1 4 3 -2 6 -13 5 -11 0 -14 -3 -6 -6z"/>
<path d="M1969 4623 c-13 -16 -12 -17 4 -4 9 7 17 15 17 17 0 8 -8 3 -21 -13z"/>
<path d="M1910 4577 c-20 -17 -60 -54 -90 -81 -30 -27 -46 -44 -35 -38 22 13
173 151 165 151 -3 0 -21 -14 -40 -32z"/>
<path d="M1659 4353 l-34 -38 38 34 c34 33 42 41 34 41 -2 0 -19 -17 -38 -37z"/>
<path d="M1574 4278 l-29 -33 33 29 c30 28 37 36 29 36 -2 0 -16 -15 -33 -32z"/>
<path d="M1504 4218 l-29 -33 33 29 c30 28 37 36 29 36 -2 0 -16 -15 -33 -32z"/>
<path d="M4688 4213 c6 -2 18 -2 25 0 6 3 1 5 -13 5 -14 0 -19 -2 -12 -5z"/>
<path d="M4848 4183 c6 -2 18 -2 25 0 6 3 1 5 -13 5 -14 0 -19 -2 -12 -5z"/>
<path d="M5634 4005 c-18 -13 -18 -14 -1 -15 21 0 23 -30 2 -30 -22 0 -18 -17
5 -23 19 -5 20 -14 20 -204 0 -263 -9 -393 -27 -393 -9 0 -13 -17 -13 -63 l0
-63 128 -12 c70 -7 153 -12 185 -12 l57 0 0 60 0 60 -30 0 -30 0 0 284 0 285
28 3 c24 3 27 7 27 38 l0 35 -140 27 c-77 15 -152 29 -166 32 -15 3 -35 -1
-45 -9z m234 -47 c77 -14 112 -25 112 -34 0 -16 -30 -18 -80 -5 -19 5 -79 17
-132 26 -73 13 -98 21 -98 32 0 17 7 17 198 -19z m-151 -44 c-3 -3 -12 -4 -19
-1 -8 3 -5 6 6 6 11 1 17 -2 13 -5z m11 -24 c8 0 12 -18 12 -56 0 -47 -3 -55
-16 -50 -9 3 -24 6 -35 6 -16 0 -19 7 -19 56 0 54 1 56 23 50 12 -3 28 -6 35
-6z m100 -16 c19 -6 22 -13 22 -58 l0 -52 -35 4 -35 4 0 54 c0 56 3 60 48 48z
m84 -251 c-1 -142 -4 -271 -6 -288 -1 -16 -4 99 -4 258 -1 158 1 287 6 287 4
0 6 -116 4 -257z m-23 220 c0 -10 -4 -27 -9 -38 -7 -16 -9 -13 -9 18 -1 20 4
37 9 37 6 0 10 -8 9 -17z m-149 -305 l0 -210 -22 6 c-13 3 -29 6 -35 6 -10 0
-13 48 -13 208 l0 208 35 -4 35 -4 0 -210z m87 216 c-3 -3 -12 -4 -19 -1 -8 3
-5 6 6 6 11 1 17 -2 13 -5z m-70 -321 c-1 -59 -3 -13 -3 102 0 116 2 164 3
108 2 -56 2 -151 0 -210z m81 297 c9 0 12 -48 12 -205 0 -217 1 -212 -47 -199
-23 6 -23 7 -23 211 l0 205 23 -6 c12 -3 28 -6 35 -6z m39 -122 c-3 -7 -5 -2
-5 12 0 14 2 19 5 13 2 -7 2 -19 0 -25z m0 -275 c-3 -10 -5 -4 -5 12 0 17 2
24 5 18 2 -7 2 -21 0 -30z m-240 -80 c-2 -16 -4 -5 -4 22 0 28 2 40 4 28 2
-13 2 -35 0 -50z m217 47 c61 -6 114 -14 118 -16 10 -7 10 -45 -1 -62 -6 -11
-35 -11 -159 0 l-152 12 0 44 0 43 43 -5 c23 -3 91 -10 151 -16z"/>
<path d="M2166 3972 l7 -537 -74 -24 c-41 -13 -80 -26 -86 -28 -10 -4 -13 59
-13 296 0 194 4 301 10 301 6 0 10 75 10 205 0 243 5 238 -119 144 l-81 -61 0
-188 c0 -180 1 -189 20 -195 20 -6 20 -13 18 -282 l-3 -276 -50 -18 c-27 -10
-56 -18 -62 -18 -17 -1 -19 500 -3 530 7 12 7 19 1 19 -6 0 -11 60 -13 149 -2
82 0 147 5 144 4 -2 7 7 7 21 0 18 -5 26 -17 26 -17 0 -18 -14 -15 -174 l3
-174 -54 -31 c-30 -17 -57 -31 -61 -31 -3 0 -6 69 -6 154 l0 154 50 37 c28 20
50 39 50 42 0 6 -2 5 -67 -46 l-43 -33 0 -165 c0 -156 1 -165 20 -170 19 -5
20 -14 20 -249 0 -244 0 -245 -22 -253 -13 -5 -24 -8 -25 -7 -1 1 -3 56 -4
124 -1 67 -5 122 -9 122 -3 0 -4 -56 -2 -125 l4 -125 -26 -10 c-20 -7 -26 -16
-26 -40 0 -17 5 -30 13 -30 7 0 116 32 242 71 127 39 264 81 305 94 41 12 120
37 175 54 55 17 103 31 108 31 4 0 7 -148 7 -330 l0 -330 -59 0 c-32 0 -86 -3
-120 -6 l-61 -7 0 -406 0 -406 118 -31 117 -30 7 -139 c4 -76 6 -140 4 -142
-1 -2 -213 76 -470 173 -258 96 -470 173 -472 171 -2 -2 348 -135 779 -297
430 -161 798 -300 817 -308 l35 -16 -40 -7 c-31 -5 -26 -6 19 -3 51 3 66 0
125 -31 36 -19 92 -58 125 -85 68 -59 215 -133 301 -151 l59 -13 -324 -53
c-179 -30 -881 -146 -1560 -260 -679 -113 -1253 -206 -1275 -208 -22 -1 -58
-7 -80 -13 -37 -11 -378 -72 -399 -72 -5 0 -7 -2 -4 -5 3 -3 642 100 1419 229
1352 225 1917 318 2553 422 160 26 285 49 280 51 -6 2 -136 -17 -289 -42 -247
-40 -285 -44 -336 -35 -129 24 -215 64 -340 159 -48 36 -103 74 -121 84 -19
10 -199 80 -401 156 -202 75 -364 140 -360 144 3 4 -1 7 -10 7 -15 0 -17 16
-17 143 l0 144 276 19 276 19 -1 414 c-1 228 -4 418 -7 423 -3 4 -126 8 -275
8 l-269 0 0 333 0 332 148 -11 c81 -7 215 -17 297 -23 352 -25 551 -43 567
-51 19 -11 28 6 28 54 l0 33 -97 7 c-173 11 -847 67 -882 72 -18 3 -31 7 -29
9 4 4 212 -12 707 -55 129 -11 236 -18 238 -16 5 4 -52 12 -164 22 -40 3 -73
10 -73 16 0 6 16 7 38 4 20 -3 75 -7 122 -10 167 -10 4 13 -240 33 -481 40
-630 55 -630 64 0 4 26 5 58 2 31 -3 181 -17 332 -30 151 -14 327 -30 391 -36
64 -6 130 -9 145 -7 16 2 -14 7 -66 11 -52 5 -107 10 -122 13 l-28 6 -2 286
c-1 158 -3 263 -5 235 -4 -48 -6 -53 -28 -53 -22 0 -192 22 -267 35 l-28 5 0
-242 0 -241 -52 6 c-29 3 -114 11 -189 18 l-136 12 -94 -32 c-90 -30 -136 -51
-113 -51 5 0 47 14 92 30 85 31 107 36 98 22 -2 -4 -45 -21 -95 -37 -50 -16
-91 -32 -91 -36 0 -4 46 8 103 27 l102 35 185 -17 c102 -9 187 -18 189 -20 13
-12 -22 -12 -194 2 l-190 15 -105 -34 -105 -35 -6 152 c-4 83 -7 323 -8 534
-1 255 -4 382 -11 382 -7 0 -8 -170 -4 -538z m-159 121 c-1 -54 -3 -10 -3 97
0 107 2 151 3 98 2 -54 2 -142 0 -195z m-27 89 l0 -188 -67 -39 c-37 -22 -70
-41 -75 -43 -4 -2 -8 77 -7 175 l0 178 67 52 c37 29 70 53 75 53 4 0 7 -85 7
-188z m1078 -237 l42 -6 0 -214 0 -215 -62 6 c-35 3 -97 9 -138 12 l-75 7 -3
221 -2 220 97 -13 c54 -7 117 -15 141 -18z m-1068 18 c-1 -13 -92 -64 -109
-61 -10 2 5 16 39 35 57 34 70 38 70 26z m-13 -135 c-2 -18 -4 -6 -4 27 0 33
2 48 4 33 2 -15 2 -42 0 -60z m-90 -350 c-1 -79 -3 -17 -3 137 0 154 2 218 3
143 2 -75 2 -201 0 -280z m30 325 c-2 -16 -4 -5 -4 22 0 28 2 40 4 28 2 -13 2
-35 0 -50z m20 5 c-2 -13 -4 -3 -4 22 0 25 2 35 4 23 2 -13 2 -33 0 -45z
m-217 -5 c0 -11 -59 -43 -78 -43 -10 0 1 11 23 25 42 26 55 30 55 18z m257
-335 c-1 -57 -3 -11 -3 102 0 113 2 159 3 103 2 -57 2 -149 0 -205z m-328 25
c0 -137 -2 -243 -4 -238 -8 20 -10 485 -2 485 4 0 7 -111 6 -247z m268 -50
c-1 -54 -3 -10 -3 97 0 107 2 151 3 98 2 -54 2 -142 0 -195z m28 -2 c-2 -40
-5 -75 -9 -78 -3 -4 -5 79 -4 183 1 178 1 183 8 78 4 -62 6 -144 5 -183z
m-278 -94 c-1 -45 -3 -5 -3 88 0 94 2 130 3 82 2 -48 2 -125 0 -170z m50 91
c-2 -29 -3 -8 -3 47 0 55 1 79 3 53 2 -26 2 -71 0 -100z m1346 36 c20 -3 37
-10 37 -16 0 -5 -8 -7 -17 -4 -10 2 -64 8 -120 11 -57 4 -103 12 -103 17 0 10
111 5 203 -8z m-725 -26 c-3 -20 -22 -29 -153 -69 -82 -26 -247 -77 -365 -114
-322 -101 -300 -95 -300 -81 0 8 163 68 403 149 221 74 406 136 410 136 5 1 7
-9 5 -21z m299 2 c354 -30 726 -60 751 -60 15 0 22 -6 22 -20 0 -11 -3 -20 -7
-20 -16 0 -910 70 -975 76 -57 6 -68 9 -68 25 0 24 -6 24 277 -1z m-950 -137
c-2 -21 -4 -4 -4 37 0 41 2 58 4 38 2 -21 2 -55 0 -75z m30 45 c-3 -8 -6 -5
-6 6 -1 11 2 17 5 13 3 -3 4 -12 1 -19z m623 -658 c0 -18 -7 -20 -77 -20 -43
0 -88 -3 -101 -6 l-22 -6 2 -351 3 -351 98 -24 c82 -21 97 -27 97 -44 0 -22 5
-23 -132 14 l-78 20 0 388 0 389 23 4 c12 2 59 5 105 6 76 1 82 -1 82 -19z
m580 -384 l0 -403 -72 -6 c-40 -4 -158 -11 -263 -17 -104 -6 -198 -12 -207
-14 -13 -3 -18 2 -18 20 0 20 5 24 33 24 17 0 131 7 252 15 121 8 223 15 228
15 4 0 7 164 7 365 l0 365 -260 0 c-253 0 -260 1 -260 20 0 20 7 20 280 20
l280 0 0 -404z m-563 348 c-3 -3 -12 -4 -19 -1 -8 3 -5 6 6 6 11 1 17 -2 13
-5z m-157 -121 c0 -65 3 -216 7 -335 l6 -218 -26 0 -27 0 0 335 c0 328 0 335
20 335 19 0 20 -7 20 -117z m68 110 c-10 -2 -26 -2 -35 0 -10 3 -2 5 17 5 19
0 27 -2 18 -5z m132 -352 c1 -194 -1 -355 -4 -358 -3 -4 -6 157 -6 357 0 200
2 361 5 359 2 -3 5 -164 5 -358z m227 -169 c-1 -97 -2 -17 -2 178 0 195 1 275
2 177 2 -97 2 -257 0 -355z m176 521 c-7 -2 -21 -2 -30 0 -10 3 -4 5 12 5 17
0 24 -2 18 -5z m34 -510 c-1 -98 -2 -20 -2 172 -1 193 1 273 2 178 2 -94 2
-252 0 -350z m20 0 c-1 -98 -2 -20 -2 172 -1 193 1 273 2 178 2 -94 2 -252 0
-350z m-630 400 c-2 -21 -4 -6 -4 32 0 39 2 55 4 38 2 -18 2 -50 0 -70z m53
32 c0 -51 -3 -65 -15 -65 -12 0 -15 14 -15 65 0 51 3 65 15 65 12 0 15 -14 15
-65z m27 -32 c-2 -21 -4 -6 -4 32 0 39 2 55 4 38 2 -18 2 -50 0 -70z m63 32
c0 -58 -2 -65 -20 -65 -18 0 -20 7 -20 65 0 58 2 65 20 65 18 0 20 -7 20 -65z
m230 1 c0 -63 0 -64 -31 -70 -40 -8 -103 -8 -123 0 -12 5 -16 21 -16 70 l0 64
85 0 85 0 0 -64z m190 -1 l0 -65 -75 0 -75 0 0 65 0 65 75 0 75 0 0 -65z
m-522 -82 c-10 -2 -26 -2 -35 0 -10 3 -2 5 17 5 19 0 27 -2 18 -5z m90 -10
c-10 -2 -28 -2 -40 0 -13 2 -5 4 17 4 22 1 32 -1 23 -4z m210 0 c-26 -2 -71
-2 -100 0 -29 2 -8 3 47 3 55 0 79 -1 53 -3z m115 0 c-7 -2 -21 -2 -30 0 -10
3 -4 5 12 5 17 0 24 -2 18 -5z m-451 -266 c2 -114 0 -207 -4 -207 -5 0 -7 107
-6 238 1 278 7 264 10 -31z m48 121 c0 -79 3 -187 7 -240 6 -96 5 -98 -15 -98
-22 0 -22 1 -22 233 0 129 3 237 7 240 19 19 23 -5 23 -135z m508 -85 l2 -223
-75 0 -75 0 0 219 0 220 38 3 c20 2 53 3 72 3 l35 0 3 -222z m-473 -23 c0
-132 -3 -240 -7 -240 -5 0 -8 108 -8 240 0 132 3 240 8 240 4 0 7 -108 7 -240z
m55 25 c0 -208 -1 -215 -20 -215 -19 0 -20 7 -20 215 0 208 1 215 20 215 19 0
20 -7 20 -215z m230 -10 l0 -225 -85 0 -85 0 0 225 0 225 85 0 85 0 0 -225z
m207 -137 c-1 -68 -3 -13 -3 122 0 135 2 190 3 123 2 -68 2 -178 0 -245z
m-437 -114 c0 -16 -26 -19 -35 -4 -3 6 -4 14 0 20 8 13 35 1 35 -16z m420 12
c0 -9 -18 -15 -52 -20 -80 -9 -98 -8 -98 8 0 10 14 16 43 19 92 8 107 7 107
-7z m-190 -10 c0 -14 -60 -26 -136 -26 -32 0 -44 4 -44 15 0 10 16 15 63 18
34 2 74 4 90 5 17 1 27 -3 27 -12z m-332 -16 c15 0 15 -2 2 -10 -19 -12 -43
-13 -36 -1 4 5 3 11 -1 14 -5 2 -2 2 5 0 8 -1 21 -3 30 -3z m542 -10 c-8 -5
-51 -9 -95 -8 l-80 2 80 6 c44 3 87 7 95 8 13 2 13 1 0 -8z m-460 -10 c14 -4
19 -8 12 -9 -7 -1 -11 -5 -8 -10 3 -4 -15 -3 -40 2 -36 8 -42 13 -28 18 23 9
32 9 64 -1z m255 -5 c-21 -8 -155 -10 -155 -3 0 4 37 8 83 7 45 0 78 -2 72 -4z"/>
<path d="M1124 3482 l8 -608 -56 -10 -56 -11 0 164 c0 102 -4 163 -10 163 -13
0 -13 439 -1 492 5 21 6 36 2 34 -3 -2 -5 56 -3 130 3 117 2 134 -12 134 -14
0 -16 -20 -16 -152 l-1 -153 -49 -38 -49 -38 -4 138 -3 138 -2 -147 c-2 -121
1 -148 13 -155 12 -7 16 -48 21 -211 l7 -203 -23 -16 c-22 -16 -22 -19 -19
-162 l4 -146 -26 -3 -26 -3 -6 308 c-4 169 -7 385 -8 478 -1 94 -3 162 -6 153
-4 -15 -15 -17 -86 -13 -81 4 -71 0 31 -11 l52 -5 1 -382 c1 -210 4 -420 7
-467 l7 -85 166 -3 166 -2 6 -277 c3 -153 5 -278 3 -280 -1 -1 -112 -7 -247
-12 l-244 -10 247 5 247 4 4 -103 c1 -56 4 75 5 291 l2 392 -67 1 c-38 1 -80
0 -95 -1 -16 -1 -28 2 -28 7 0 20 215 44 375 43 194 -2 185 -2 185 9 0 5 -85
11 -189 13 -104 1 -192 5 -194 8 -3 3 -9 276 -13 608 -4 388 -11 602 -17 602
-7 0 -7 -206 -3 -608z m-150 132 c-57 -44 -76 -37 -22 8 18 15 35 22 37 17 1
-6 -5 -17 -15 -25z m-47 -342 c-1 -53 -3 -7 -3 103 0 110 2 154 3 97 2 -57 2
-147 0 -200z m20 231 c-3 -10 -5 -2 -5 17 0 19 2 27 5 18 2 -10 2 -26 0 -35z
m42 -569 l1 -81 -50 -10 -50 -10 0 143 0 143 43 19 42 18 6 -70 c4 -39 7 -108
8 -152z m18 119 c-3 -10 -5 -2 -5 17 0 19 2 27 5 18 2 -10 2 -26 0 -35z"/>
<path d="M1552 3886 l-2 -158 -85 7 -86 7 3 -119 3 -118 85 -6 c47 -4 86 -6
88 -4 1 1 1 125 -1 276 -1 163 -3 210 -5 115z m-53 -192 l31 -6 0 -86 0 -85
-37 7 c-21 3 -50 6 -65 6 l-28 0 0 85 0 85 34 0 c18 0 48 -3 65 -6z"/>
<path d="M1743 3930 c0 -41 2 -58 4 -37 2 20 2 54 0 75 -2 20 -4 3 -4 -38z"/>
<path d="M3390 3135 c0 -103 4 -165 10 -165 6 0 10 62 10 165 0 103 -4 165
-10 165 -6 0 -10 -62 -10 -165z"/>
<path d="M1300 2834 c-13 -4 -15 -61 -12 -449 2 -385 4 -445 17 -445 11 0 15
11 15 41 0 24 4 38 10 34 6 -3 10 -26 10 -51 0 -32 4 -44 15 -44 12 0 15 18
15 100 l0 99 41 -14 c23 -8 52 -15 65 -15 l24 0 0 300 0 300 -64 0 c-42 0 -66
-4 -69 -12 -3 -7 -6 26 -6 75 -1 84 -2 87 -23 86 -13 -1 -30 -3 -38 -5z m160
-174 c0 -5 -18 -10 -40 -10 -22 0 -40 5 -40 10 0 6 18 10 40 10 22 0 40 -4 40
-10z m28 -272 c-2 -315 -6 -292 -10 55 -2 125 0 227 5 227 4 0 6 -127 5 -282z
m-68 12 l0 -230 -25 0 -25 0 0 230 0 230 25 0 25 0 0 -230z m17 3 c-2 -21 -4
-4 -4 37 0 41 2 58 4 38 2 -21 2 -55 0 -75z m17 -274 c17 -15 1 -19 -37 -8
-46 13 -50 33 -4 24 17 -4 36 -11 41 -16z"/>
<path d="M3280 2325 l0 -405 43 0 c75 0 447 29 457 35 6 4 10 149 10 384 l0
378 -112 6 c-62 4 -177 7 -255 7 l-143 0 0 -405z m17 -188 c-1 -105 -2 -19 -2
193 0 212 1 298 2 192 2 -105 2 -279 0 -385z m471 201 l2 -367 -32 -5 c-18 -3
-82 -8 -143 -11 -60 -3 -147 -8 -192 -11 l-83 -6 0 386 0 386 223 -2 222 -3 3
-367z"/>
<path d="M3350 2324 l0 -347 113 7 c61 3 149 9 195 13 l82 6 0 333 0 334 -195
0 -195 0 0 -346z m370 11 c0 -197 -4 -315 -10 -315 -6 0 -11 120 -12 315 -2
247 0 315 10 315 9 0 12 -70 12 -315z m-330 240 c0 -37 -4 -65 -10 -65 -6 0
-10 28 -10 65 0 37 4 65 10 65 6 0 10 -28 10 -65z m95 0 l0 -60 -42 -3 -43 -3
0 66 0 66 43 -3 42 -3 0 -60z m150 0 l0 -60 -52 -3 -53 -3 0 66 0 66 53 -3 52
-3 0 -60z m22 -32 c-2 -21 -4 -6 -4 32 0 39 2 55 4 38 2 -18 2 -50 0 -70z
m-190 -50 c-20 -2 -52 -2 -70 0 -17 2 0 4 38 4 39 0 53 -2 32 -4z m181 0 c-21
-2 -57 -2 -80 0 -24 2 -7 4 37 4 44 0 63 -2 43 -4z m-258 -203 c0 -120 -4
-190 -10 -190 -6 0 -10 70 -10 190 0 120 4 190 10 190 6 0 10 -70 10 -190z
m97 -2 l2 -188 -45 0 -44 0 0 191 0 190 43 -3 42 -3 2 -187z m153 -8 l0 -200
-39 0 c-74 0 -71 -10 -71 206 l0 194 55 0 55 0 0 -200z m17 -132 c-1 -62 -3
-12 -3 112 0 124 2 174 3 113 2 -62 2 -164 0 -225z m-174 -75 c4 -2 7 -13 7
-24 0 -13 -7 -19 -22 -19 -13 0 -40 -3 -60 -6 l-38 -7 0 38 0 37 53 -7 c28 -4
55 -9 60 -12z m152 -21 c12 -8 -29 -20 -72 -21 -27 -1 -33 3 -33 20 0 20 4 21
48 14 26 -4 51 -10 57 -13z m-17 -39 c-15 -2 -42 -2 -60 0 -18 2 -6 4 27 4 33
0 48 -2 33 -4z m-190 -10 c-10 -2 -28 -2 -40 0 -13 2 -5 4 17 4 22 1 32 -1 23
-4z m55 0 c-7 -2 -19 -2 -25 0 -7 3 -2 5 12 5 14 0 19 -2 13 -5z"/>
<path d="M1813 2713 l-23 -4 0 -353 0 -353 83 -22 c89 -23 127 -27 127 -11 0
6 -7 10 -15 10 -12 0 -15 20 -15 118 0 65 -3 227 -7 360 -4 177 -3 242 5 242
8 0 12 -41 15 -127 l3 -128 2 138 2 137 -77 -1 c-43 -1 -88 -4 -100 -6z m127
-28 c0 -10 -10 -15 -32 -15 -18 0 -50 -3 -70 -6 -30 -5 -38 -3 -38 9 0 19 19
24 88 26 40 1 52 -2 52 -14z m-80 -325 c0 -283 0 -290 -20 -290 -20 0 -20 7
-20 290 0 283 0 290 20 290 20 0 20 -7 20 -290z m60 215 c0 -30 -4 -55 -10
-55 -5 0 -10 25 -10 55 0 30 5 55 10 55 6 0 10 -25 10 -55z m-33 -42 c-3 -10
-5 -2 -5 17 0 19 2 27 5 18 2 -10 2 -26 0 -35z m32 -250 c-1 -118 -5 -195 -9
-178 -12 46 -12 385 0 385 6 0 10 -75 9 -207z m-32 -110 c-1 -54 -3 -12 -3 92
0 105 2 149 3 98 2 -51 2 -136 0 -190z m60 40 c-2 -16 -4 -5 -4 22 0 28 2 40
4 28 2 -13 2 -35 0 -50z m-57 -185 c47 -9 60 -16 60 -30 0 -20 5 -20 -100 7
-30 7 -46 17 -49 30 -2 13 1 16 13 12 8 -3 42 -12 76 -19z"/>
<path d="M1603 2703 l-53 -4 0 -258 c0 -142 3 -285 6 -319 l7 -60 63 -16 c35
-9 70 -16 79 -16 13 0 15 40 15 340 l0 340 -32 -2 c-18 -1 -57 -3 -85 -5z m77
-34 c0 -5 -27 -9 -60 -9 -74 0 -80 18 -7 22 57 3 67 1 67 -13z m27 -461 c-1
-90 -3 -17 -3 162 0 179 2 252 3 163 2 -90 2 -236 0 -325z m-87 178 c0 -241
-5 -285 -28 -261 -9 8 -16 479 -8 500 3 8 12 15 21 15 13 0 15 -33 15 -254z
m17 152 c-3 -7 -5 -2 -5 12 0 14 2 19 5 13 2 -7 2 -19 0 -25z m0 -95 c-3 -10
-5 -2 -5 17 0 19 2 27 5 18 2 -10 2 -26 0 -35z m30 -290 c-3 -10 -5 -4 -5 12
0 17 2 24 5 18 2 -7 2 -21 0 -30z m13 -89 c0 -8 -6 -11 -12 -9 -7 2 -32 9 -55
15 -24 6 -43 17 -43 24 0 11 10 10 55 -2 31 -9 55 -21 55 -28z"/>
<path d="M1981 2414 c0 -11 3 -14 6 -6 3 7 2 16 -1 19 -3 4 -6 -2 -5 -13z"/>
<path d="M1981 2275 c0 -38 4 -88 8 -110 7 -33 9 -22 10 55 0 52 -4 102 -9
110 -7 10 -10 -6 -9 -55z"/>
<path d="M160 2200 l-165 -6 150 -1 c83 0 233 3 335 6 l185 7 -170 0 c-93 0
-244 -3 -335 -6z"/>
<path d="M0 2026 c0 -7 194 -316 580 -925 159 -251 167 -269 147 -364 -14 -71
-103 -164 -205 -216 -24 -12 -42 -25 -39 -28 10 -9 109 51 159 96 69 62 99
118 106 196 l5 64 -83 133 c-46 73 -119 189 -163 258 -44 69 -172 271 -284
450 -199 316 -223 352 -223 336z"/>
<path d="M6293 1993 c15 -2 37 -2 50 0 12 2 0 4 -28 4 -27 0 -38 -2 -22 -4z"/>
<path d="M1250 1980 c20 -13 33 -13 25 0 -3 6 -14 10 -23 10 -15 0 -15 -2 -2
-10z"/>
<path d="M6490 1974 c69 -7 143 -12 165 -12 22 1 -12 7 -75 13 -63 7 -137 13
-165 13 -27 -1 6 -6 75 -14z"/>
<path d="M6820 1945 c69 -8 148 -13 175 -13 28 0 -6 6 -75 14 -69 7 -147 12
-175 12 -27 0 6 -6 75 -13z"/>
<path d="M7080 1924 c92 -12 199 -19 192 -13 -4 4 -56 9 -117 12 -60 3 -94 3
-75 1z"/>
<path d="M3 1830 c3 -8 116 -248 252 -534 135 -285 245 -519 243 -521 -9 -8
-170 -38 -320 -60 -94 -14 -174 -27 -176 -30 -8 -7 -9 -7 185 20 195 28 317
56 372 85 20 11 30 19 23 20 -7 0 -26 -7 -42 -15 l-30 -15 -29 62 c-72 157
-460 968 -471 984 -6 11 -9 12 -7 4z"/>
<path d="M6025 1750 c-71 -9 -121 -18 -109 -19 27 -1 298 30 303 35 8 8 -64 2
-194 -16z"/>
<path d="M5705 1714 c-148 -18 -175 -23 -85 -17 102 6 285 30 235 30 -22 1
-89 -5 -150 -13z"/>
<path d="M5380 1675 c-47 -7 -69 -13 -50 -13 19 0 76 6 125 13 50 7 72 12 50
12 -22 0 -78 -5 -125 -12z"/>
<path d="M7030 1562 c-118 -20 -208 -38 -199 -40 17 -3 440 66 448 74 8 7 -29
2 -249 -34z"/>
<path d="M6570 1485 c-102 -18 -176 -33 -165 -34 18 -1 355 53 395 63 60 15
-78 -2 -230 -29z"/>
<path d="M6181 1422 c-85 -14 -150 -27 -144 -29 12 -4 335 46 342 53 8 8 -46
1 -198 -24z"/>
<path d="M5870 1370 c-52 -9 -203 -34 -334 -55 -132 -22 -235 -40 -229 -42 12
-4 705 106 712 113 9 8 -56 1 -149 -16z"/>
<path d="M2913 1273 c9 -2 25 -2 35 0 9 3 1 5 -18 5 -19 0 -27 -2 -17 -5z"/>
<path d="M2660 1247 c-91 -12 -157 -23 -147 -25 16 -3 351 35 372 43 24 9 -72
1 -225 -18z"/>
<path d="M5253 1263 c9 -2 23 -2 30 0 6 3 -1 5 -18 5 -16 0 -22 -2 -12 -5z"/>
<path d="M5135 1250 c-22 -5 -102 -18 -177 -31 -76 -12 -136 -24 -134 -26 5
-5 398 57 405 63 7 6 -51 3 -94 -6z"/>
<path d="M2345 1205 c-44 -7 -66 -12 -50 -13 17 0 68 5 115 12 47 8 69 13 50
13 -19 0 -71 -5 -115 -12z"/>
<path d="M2105 1175 c-44 -7 -64 -12 -45 -13 19 0 73 5 120 12 50 8 69 13 45
13 -22 0 -76 -5 -120 -12z"/>
<path d="M4660 1170 c-52 -10 -84 -18 -70 -18 14 -1 70 7 125 18 55 10 87 18
70 18 -16 0 -73 -8 -125 -18z"/>
<path d="M1440 1092 c-283 -37 -508 -68 -499 -70 14 -3 1033 123 1069 132 61
15 -129 -6 -570 -62z"/>
<path d="M4390 1127 c-69 -11 -119 -22 -112 -24 12 -5 273 36 281 43 8 7 -44
2 -169 -19z"/>
<path d="M810 1010 c-41 -6 -42 -7 -10 -8 19 0 55 3 80 7 40 8 41 8 10 8 -19
0 -55 -3 -80 -7z"/>
<path d="M698 993 c12 -2 32 -2 45 0 12 2 2 4 -23 4 -25 0 -35 -2 -22 -4z"/>
<path d="M7182 43 c-45 -20 -80 -38 -77 -41 7 -7 175 61 175 71 0 11 -8 8 -98
-30z"/>
</g>
</svg>
